<!-- Generated by IcoMoon.io -->
<svg version="1.1" xmlns="http://www.w3.org/2000/svg" width="60" height="60" viewBox="0 0 60 60">
<title>github</title>
<path fill="#fff" d="M30 0.741c-16.567 0-30 13.431-30 30 0 13.255 8.596 24.5 20.516 28.467 1.499 0.278 2.050-0.651 2.050-1.443 0-0.715-0.028-3.079-0.041-5.585-8.347 1.815-10.108-3.54-10.108-3.54-1.364-3.467-3.331-4.39-3.331-4.39-2.722-1.862 0.206-1.824 0.206-1.824 3.012 0.212 4.598 3.092 4.598 3.092 2.676 4.586 7.018 3.26 8.731 2.494 0.269-1.939 1.046-3.262 1.905-4.012-6.664-0.758-13.669-3.331-13.669-14.826 0-3.275 1.172-5.952 3.091-8.052-0.311-0.756-1.339-3.807 0.29-7.939 0 0 2.52-0.806 8.252 3.076 2.393-0.665 4.959-0.998 7.509-1.010 2.549 0.012 5.117 0.345 7.515 1.010 5.727-3.881 8.242-3.076 8.242-3.076 1.633 4.133 0.606 7.184 0.295 7.939 1.923 2.101 3.088 4.777 3.088 8.052 0 11.523-7.018 14.060-13.699 14.802 1.076 0.931 2.035 2.757 2.035 5.555 0 4.014-0.035 7.245-0.035 8.233 0 0.799 0.54 1.734 2.061 1.439 11.913-3.971 20.499-15.212 20.499-28.463 0-16.569-13.432-30-30-30z"></path>
</svg>
