<!-- Generated by IcoMoon.io -->
<svg version="1.1" xmlns="http://www.w3.org/2000/svg" width="60" height="60" viewBox="0 0 60 60">
<title>gulp</title>
<path fill="#fff" d="M37.89 48.58l1.59-2.71s-3.61 1.477-9.65 1.477c-6.045 0-9.6-1.42-9.6-1.42l1.777 2.958 0.63 9.323c0 1.008 3.285 1.795 7.34 1.795 4.058 0 7.345-0.785 7.345-1.795l0.573-9.588v-0.040zM39.427 30.965c-1.923 0.115-2.883 2.258-3.847 4.512-0.357 0.825-1.575 4.342-2.37 3.907-0.795-0.432 1.032-3.322 1.548-5.043-0.593 0.435-2.763 2.123-3.322 0.537-0.895 0.785-2.823 1.2-2.605-0.822-0.477 0.862-1.552 2.058-2.847 1.535-1.683-0.638 0.987-6.027 1.65-5.768 0.665 0.303-0.132 1.5-0.34 1.985-0.465 1.047-0.995 2.395-0.637 2.658 0.6 0.485 2.26-1.758 2.298-1.797 0.31-0.413 1.197-3.072 1.908-2.768 0.712 0.335-1.777 3.852-0.85 4.565 0.19 0.15 0.957-0.075 1.422-0.597 0.3-0.3 0.195-1.050 1.197-3.445 1.010-2.397 1.91-5.39 2.598-5.165s0.123 1.758-0.128 2.358c-1.16 2.695-3.17 7.11-2.225 6.775 0.935-0.337 1.422-0.337 2.358-1.422s0.862-2.88 1.497-2.843c0.6 0.035 0.525 0.635 0.375 1.045 0.6-0.675 2.88-2.17 3.408-0.71 0.635 1.72-3.26 4.23-2.285 4.080 0.938-0.112 2.47-1.085 3.145-1.983l1.797-16.25s-1.835 1.5-13.402 1.5-13.21-1.46-13.21-1.46l1.533 14.825c0.825-2.32 2.77-7.035 5.805-6.85 1.385 0.075 3.258 2.772 1.645 2.847-0.675 0.037-0.75-1.347-1.535-1.535-0.597-0.115-1.385 0.338-1.908 0.863-1.010 1.010-3.26 5.015-2.96 7.002 0.375 2.545 3.517-0.865 4.043-1.875 0.372-0.708 0.635-2.845 1.42-2.62 0.825 0.225-0.072 2.435-0.675 4.342-0.675 2.172-1.010 4.452-1.83 4.19-0.825-0.26 0.522-3.067 0.445-3.555-0.783 0.747-2.208 2.55-4.077 1.647l0.935 9.248s2.547 1.983 10.182 1.983 10.295-1.983 10.295-1.983l1.197-10.707c-0.972 0.975-4.042 2.658-4.23 0.75-0.147-1.535 3.333-3.745 2.435-3.785l0.15-0.172zM43.365 1.673l-6.648 7-1.215 4.752c4.702 0.3 7.972 0.965 7.972 1.735 0 1.047-6.035 1.893-13.477 1.893s-13.475-0.858-13.475-1.908c0-1.047 6.035-1.91 13.478-1.91 1.058 0 2.11 0 3.16 0.040l1.403-5.69 7.062-7.488c0.17-0.225 0.7-0.038 1.185 0.375 0.485 0.372 0.747 0.86 0.597 1.085v0.075l-0.042 0.040zM33.78 16.16s-1.308 0-1.525-0.2c-0.055-0.063-0.090-0.145-0.090-0.225 0-0.145 0.098-0.228 0.225-0.275l0.11 0.188c-0.053 0.015-0.072 0.037-0.083 0.057 0 0.102 0.785 0.173 1.387 0.165 0.597-0.008 1.328-0.057 1.332-0.16 0-0.030-0.057-0.057-0.153-0.082l0.112-0.18c0.157 0.050 0.292 0.145 0.292 0.303 0 0.275-0.352 0.32-0.575 0.353-0.267 0.037-1.030 0.057-1.030 0.057h-0.005z"></path>
</svg>
