<svg
  width="118.175"
  height="22.127"
  viewBox="0 0 118.175 22.127"
  xmlns="http://www.w3.org/2000/svg"
>
  <g
    id="svgGroup"
    stroke-linecap="round"
    fill-rule="nonzero"
    font-size="9pt"
    stroke="#ffffff"
    stroke-width="0"
    fill="#ffffff"
    style="stroke: #ffffff; stroke-width: 0; fill: #ffffff"
  >
    <path
      d="M 84.564 15.196 L 71.485 15.196 L 71.485 13.195 L 83.114 13.195 L 81.983 13.891 A 6.53 6.53 0 0 0 81.984 13.763 Q 81.984 12.362 81.374 11.252 Q 80.736 10.092 79.62 9.44 Q 78.503 8.787 77.024 8.787 A 5.496 5.496 0 0 0 75.504 8.991 A 4.711 4.711 0 0 0 74.443 9.44 Q 73.312 10.092 72.674 11.267 Q 72.036 12.441 72.036 13.949 L 72.036 14.413 A 5.676 5.676 0 0 0 72.27 16.068 A 4.955 4.955 0 0 0 72.747 17.154 Q 73.457 18.357 74.733 19.024 A 5.83 5.83 0 0 0 76.666 19.626 A 7.402 7.402 0 0 0 77.662 19.691 Q 79.025 19.691 80.142 19.227 Q 81.258 18.763 82.099 17.835 L 83.636 19.633 Q 82.592 20.851 81.041 21.489 A 8.484 8.484 0 0 1 78.736 22.065 A 10.546 10.546 0 0 1 77.575 22.127 Q 75.11 22.127 73.24 21.112 Q 71.369 20.097 70.34 18.328 Q 69.31 16.559 69.31 14.268 A 8.932 8.932 0 0 1 69.592 11.981 A 7.444 7.444 0 0 1 70.311 10.208 Q 71.311 8.439 73.066 7.439 A 7.664 7.664 0 0 1 76.346 6.463 A 9.274 9.274 0 0 1 77.024 6.438 A 8.591 8.591 0 0 1 79.219 6.708 A 7.116 7.116 0 0 1 80.968 7.424 Q 82.679 8.41 83.651 10.194 A 7.886 7.886 0 0 1 84.507 12.79 A 10.298 10.298 0 0 1 84.622 14.355 A 5.007 5.007 0 0 1 84.62 14.494 Q 84.618 14.555 84.615 14.622 A 8.82 8.82 0 0 1 84.608 14.761 A 5.918 5.918 0 0 1 84.584 15.04 A 4.9 4.9 0 0 1 84.564 15.196 Z M 23.171 13.108 L 23.171 21.953 L 20.387 21.953 L 20.387 13.427 A 7.306 7.306 0 0 0 20.284 12.154 Q 20.161 11.464 19.894 10.92 A 3.367 3.367 0 0 0 19.3 10.063 A 3.552 3.552 0 0 0 17.544 9.078 Q 16.949 8.932 16.24 8.932 Q 14.761 8.932 13.659 9.512 Q 12.557 10.092 11.963 11.223 Q 11.368 12.354 11.368 14.036 L 11.368 21.953 L 8.584 21.953 L 8.584 6.583 L 11.252 6.583 L 11.252 10.73 L 10.817 9.628 A 5.327 5.327 0 0 1 13.088 7.306 A 6.468 6.468 0 0 1 13.137 7.279 A 6.99 6.99 0 0 1 15.41 6.539 A 9.163 9.163 0 0 1 16.791 6.438 Q 18.676 6.438 20.112 7.163 Q 21.547 7.888 22.359 9.367 A 6.112 6.112 0 0 1 22.942 10.926 Q 23.11 11.646 23.155 12.485 A 11.714 11.714 0 0 1 23.171 13.108 Z M 26.39 20.329 L 27.55 18.125 Q 28.536 18.792 29.986 19.256 Q 31.436 19.72 32.944 19.72 A 10.884 10.884 0 0 0 33.9 19.681 Q 34.847 19.597 35.438 19.333 A 2.294 2.294 0 0 0 35.743 19.169 Q 36.598 18.618 36.598 17.632 Q 36.598 16.907 36.076 16.501 Q 35.554 16.095 34.699 15.892 Q 33.843 15.689 32.799 15.53 Q 31.755 15.37 30.711 15.124 A 8.643 8.643 0 0 1 29.3 14.664 A 7.585 7.585 0 0 1 28.797 14.428 Q 27.927 13.978 27.405 13.181 A 2.92 2.92 0 0 1 27.039 12.348 Q 26.937 11.974 26.902 11.532 A 6.087 6.087 0 0 1 26.883 11.049 A 4.168 4.168 0 0 1 27.145 9.556 A 3.839 3.839 0 0 1 27.666 8.613 Q 28.449 7.569 29.885 7.004 Q 31.229 6.474 33.044 6.44 A 13.401 13.401 0 0 1 33.292 6.438 A 13.379 13.379 0 0 1 36.255 6.778 A 14.743 14.743 0 0 1 36.352 6.801 A 9.96 9.96 0 0 1 37.498 7.138 Q 38.296 7.429 38.889 7.83 L 37.7 10.034 A 6.771 6.771 0 0 0 36.103 9.241 A 6.129 6.129 0 0 0 35.525 9.077 Q 34.394 8.816 33.263 8.816 A 9.017 9.017 0 0 0 32.309 8.863 Q 31.305 8.97 30.683 9.322 A 2.424 2.424 0 0 0 30.537 9.411 A 2.359 2.359 0 0 0 30.046 9.834 A 1.633 1.633 0 0 0 29.638 10.933 A 1.824 1.824 0 0 0 29.704 11.439 A 1.334 1.334 0 0 0 30.175 12.137 Q 30.659 12.516 31.404 12.742 A 5.675 5.675 0 0 0 31.567 12.789 Q 32.422 13.021 33.466 13.181 Q 34.51 13.34 35.554 13.587 Q 36.598 13.833 37.454 14.268 Q 38.309 14.703 38.846 15.486 A 2.833 2.833 0 0 1 39.235 16.351 Q 39.336 16.722 39.368 17.161 A 5.756 5.756 0 0 1 39.382 17.574 Q 39.382 18.966 38.57 19.981 A 4.657 4.657 0 0 1 37.371 21.028 A 6.429 6.429 0 0 1 36.279 21.562 A 8.041 8.041 0 0 1 34.765 21.967 Q 33.835 22.127 32.741 22.127 A 12.602 12.602 0 0 1 29.43 21.699 A 11.759 11.759 0 0 1 29.102 21.605 Q 27.86 21.229 27.001 20.734 A 5.679 5.679 0 0 1 26.39 20.329 Z M 86.536 20.329 L 87.696 18.125 Q 88.682 18.792 90.132 19.256 Q 91.582 19.72 93.09 19.72 A 10.884 10.884 0 0 0 94.046 19.681 Q 94.993 19.597 95.584 19.333 A 2.294 2.294 0 0 0 95.889 19.169 Q 96.744 18.618 96.744 17.632 Q 96.744 16.907 96.222 16.501 Q 95.7 16.095 94.845 15.892 Q 93.989 15.689 92.945 15.53 Q 91.901 15.37 90.857 15.124 A 8.643 8.643 0 0 1 89.446 14.664 A 7.585 7.585 0 0 1 88.943 14.428 Q 88.073 13.978 87.551 13.181 A 2.92 2.92 0 0 1 87.185 12.348 Q 87.083 11.974 87.048 11.532 A 6.087 6.087 0 0 1 87.029 11.049 A 4.168 4.168 0 0 1 87.291 9.556 A 3.839 3.839 0 0 1 87.812 8.613 Q 88.595 7.569 90.031 7.004 Q 91.375 6.474 93.19 6.44 A 13.401 13.401 0 0 1 93.438 6.438 A 13.379 13.379 0 0 1 96.401 6.778 A 14.743 14.743 0 0 1 96.498 6.801 A 9.96 9.96 0 0 1 97.644 7.138 Q 98.442 7.429 99.035 7.83 L 97.846 10.034 A 6.771 6.771 0 0 0 96.249 9.241 A 6.129 6.129 0 0 0 95.671 9.077 Q 94.54 8.816 93.409 8.816 A 9.017 9.017 0 0 0 92.455 8.863 Q 91.451 8.97 90.829 9.322 A 2.424 2.424 0 0 0 90.683 9.411 A 2.359 2.359 0 0 0 90.192 9.834 A 1.633 1.633 0 0 0 89.784 10.933 A 1.824 1.824 0 0 0 89.85 11.439 A 1.334 1.334 0 0 0 90.321 12.137 Q 90.805 12.516 91.55 12.742 A 5.675 5.675 0 0 0 91.713 12.789 Q 92.568 13.021 93.612 13.181 Q 94.656 13.34 95.7 13.587 Q 96.744 13.833 97.6 14.268 Q 98.455 14.703 98.992 15.486 A 2.833 2.833 0 0 1 99.381 16.351 Q 99.482 16.722 99.514 17.161 A 5.756 5.756 0 0 1 99.528 17.574 Q 99.528 18.966 98.716 19.981 A 4.657 4.657 0 0 1 97.517 21.028 A 6.429 6.429 0 0 1 96.425 21.562 A 8.041 8.041 0 0 1 94.911 21.967 Q 93.981 22.127 92.887 22.127 A 12.602 12.602 0 0 1 89.576 21.699 A 11.759 11.759 0 0 1 89.248 21.605 Q 88.006 21.229 87.147 20.734 A 5.679 5.679 0 0 1 86.536 20.329 Z M 105.792 21.953 L 103.008 21.953 L 103.008 0.435 L 105.792 0.435 L 105.792 21.953 Z M 65.453 21.953 L 62.785 21.953 L 62.785 17.806 L 62.959 14.239 L 62.669 10.672 L 62.669 0.435 L 65.453 0.435 L 65.453 21.953 Z M 54.943 21.815 A 7.429 7.429 0 0 1 53.317 21.141 Q 51.562 20.155 50.547 18.386 A 7.614 7.614 0 0 1 49.622 15.612 A 9.794 9.794 0 0 1 49.532 14.268 A 9.187 9.187 0 0 1 49.77 12.132 A 7.276 7.276 0 0 1 50.547 10.165 Q 51.562 8.41 53.317 7.424 A 7.723 7.723 0 0 1 56.417 6.479 A 9.502 9.502 0 0 1 57.304 6.438 A 7.476 7.476 0 0 1 59.586 6.778 A 6.721 6.721 0 0 1 60.813 7.308 A 6.167 6.167 0 0 1 62.979 9.346 A 7.674 7.674 0 0 1 63.322 9.918 A 7.317 7.317 0 0 1 64.014 11.808 Q 64.201 12.644 64.248 13.61 A 13.556 13.556 0 0 1 64.264 14.268 Q 64.264 16.394 63.658 17.942 A 6.72 6.72 0 0 1 63.351 18.618 A 6.728 6.728 0 0 1 62.116 20.305 A 5.926 5.926 0 0 1 60.871 21.243 A 6.859 6.859 0 0 1 58.159 22.085 A 8.459 8.459 0 0 1 57.304 22.127 A 8.651 8.651 0 0 1 54.943 21.815 Z M 57.536 19.691 A 5.436 5.436 0 0 0 59.321 19.404 A 4.996 4.996 0 0 0 60.161 19.024 Q 61.335 18.357 62.017 17.125 A 5.421 5.421 0 0 0 62.632 15.245 A 6.952 6.952 0 0 0 62.698 14.268 A 6.738 6.738 0 0 0 62.558 12.862 A 5.067 5.067 0 0 0 62.017 11.412 Q 61.335 10.208 60.161 9.541 A 5.156 5.156 0 0 0 57.806 8.88 A 6.142 6.142 0 0 0 57.536 8.874 A 5.611 5.611 0 0 0 55.973 9.085 A 4.848 4.848 0 0 0 54.897 9.541 Q 53.737 10.208 53.041 11.412 Q 52.345 12.615 52.345 14.268 Q 52.345 15.892 53.041 17.125 A 5.053 5.053 0 0 0 54.314 18.63 A 4.831 4.831 0 0 0 54.897 19.024 A 5.036 5.036 0 0 0 56.993 19.668 A 6.189 6.189 0 0 0 57.536 19.691 Z M 3.277 21.953 L 0.493 21.953 L 0.493 6.583 L 3.277 6.583 L 3.277 21.953 Z M 45.646 21.953 L 42.862 21.953 L 42.862 6.583 L 45.646 6.583 L 45.646 21.953 Z M 109.243 14.529 L 105.27 18.241 L 105.328 14.674 L 114.173 6.583 L 117.537 6.583 L 110.751 13.253 L 109.243 14.529 Z M 118.175 21.953 L 114.753 21.953 L 108.721 14.471 L 110.519 12.238 L 118.175 21.953 Z M 1.885 3.625 Q 1.073 3.625 0.537 3.103 A 1.708 1.708 0 0 1 0 1.862 A 2.096 2.096 0 0 1 0 1.827 A 1.874 1.874 0 0 1 0.13 1.12 A 1.734 1.734 0 0 1 0.537 0.522 A 1.824 1.824 0 0 1 1.735 0.005 A 2.411 2.411 0 0 1 1.885 0 A 2.135 2.135 0 0 1 2.554 0.101 A 1.791 1.791 0 0 1 3.234 0.508 Q 3.77 1.015 3.77 1.769 A 1.936 1.936 0 0 1 3.632 2.51 A 1.809 1.809 0 0 1 3.248 3.089 A 1.75 1.75 0 0 1 2.152 3.611 A 2.41 2.41 0 0 1 1.885 3.625 Z M 44.254 3.625 Q 43.442 3.625 42.906 3.103 A 1.708 1.708 0 0 1 42.369 1.862 A 2.096 2.096 0 0 1 42.369 1.827 A 1.874 1.874 0 0 1 42.499 1.12 A 1.734 1.734 0 0 1 42.906 0.522 A 1.824 1.824 0 0 1 44.104 0.005 A 2.411 2.411 0 0 1 44.254 0 A 2.135 2.135 0 0 1 44.923 0.101 A 1.791 1.791 0 0 1 45.603 0.508 Q 46.139 1.015 46.139 1.769 A 1.936 1.936 0 0 1 46.001 2.51 A 1.809 1.809 0 0 1 45.617 3.089 A 1.75 1.75 0 0 1 44.521 3.611 A 2.41 2.41 0 0 1 44.254 3.625 Z"
      vector-effect="non-scaling-stroke"
    />
  </g>
</svg>
