<!-- Generated by IcoMoon.io -->
<svg version="1.1" xmlns="http://www.w3.org/2000/svg" width="60" height="60" viewBox="0 0 60 60">
<title>linkedin</title>
<path fill="#fff" d="M22.5 22.5h10.377v5.319h0.148c1.444-2.589 4.978-5.319 10.245-5.319 10.954 0 12.98 6.819 12.98 15.688v18.062h-10.817v-16.012c0-3.819-0.078-8.732-5.627-8.732-5.634 0-6.493 4.159-6.493 8.455v16.29h-10.813v-33.75z"></path>
<path fill="#fff" d="M3.75 22.5h11.25v33.75h-11.25v-33.75z"></path>
<path fill="#fff" d="M15 13.125c0 3.107-2.518 5.625-5.625 5.625s-5.625-2.518-5.625-5.625c0-3.107 2.518-5.625 5.625-5.625s5.625 2.518 5.625 5.625z"></path>
</svg>
