<!-- Generated by IcoMoon.io -->
<svg version="1.1" xmlns="http://www.w3.org/2000/svg" width="60" height="60" viewBox="0 0 60 60">
<title>mail</title>
<path fill="#3b5999" d="M58.863 22.359c0.457-0.363 1.137-0.023 1.137 0.551v23.965c0 3.105-2.52 5.625-5.625 5.625h-48.75c-3.105 0-5.625-2.52-5.625-5.625v-23.953c0-0.586 0.668-0.914 1.137-0.551 2.625 2.039 6.105 4.629 18.059 13.313 2.473 1.805 6.645 5.602 10.805 5.578 4.184 0.035 8.438-3.844 10.816-5.578 11.953-8.684 15.422-11.285 18.047-13.324zM30 37.5c2.719 0.047 6.633-3.422 8.602-4.852 15.551-11.285 16.734-12.27 20.32-15.082 0.68-0.527 1.078-1.348 1.078-2.215v-2.227c0-3.105-2.52-5.625-5.625-5.625h-48.75c-3.105 0-5.625 2.52-5.625 5.625v2.227c0 0.867 0.398 1.676 1.078 2.215 3.586 2.801 4.77 3.797 20.32 15.082 1.969 1.43 5.883 4.898 8.602 4.852z"></path>
</svg>
