<!-- Generated by IcoMoon.io -->
<svg version="1.1" xmlns="http://www.w3.org/2000/svg" width="88" height="60" viewBox="0 0 88 60">
<title>postcss</title>
<path fill="#fff" d="M72.953 26.137c-0.040-0.778-0.061-1.555-0.14-2.333-0.14-1.057-0.28-2.134-0.518-3.17-0.179-0.857-0.477-1.675-0.776-2.492-0.378-0.957-0.757-1.934-1.236-2.851-0.776-1.476-1.792-2.792-2.728-4.168-0.617-0.878-1.413-1.595-2.011-2.492-0.338-0.52-0.836-0.958-1.334-1.357-0.796-0.639-1.632-1.217-2.468-1.775-0.539-0.384-1.176-0.792-1.833-1.171l-0.12-0.064c-0.537-0.3-1.115-0.539-1.672-0.798-0.637-0.3-1.255-0.658-1.971-0.798-0.179-0.040-0.338-0.1-0.518-0.159-0.459-0.16-0.897-0.341-1.354-0.48-0.698-0.219-1.374-0.478-2.091-0.658-0.695-0.178-1.412-0.297-2.129-0.397-0.796-0.12-1.612-0.159-2.409-0.24-0.518-0.061-1.035-0.12-1.533-0.138-0.757-0.041-1.533-0.041-2.29-0.061-0.378-0.020-0.777-0.061-1.155-0.040-0.577 0.020-1.155 0.080-1.733 0.159-0.557 0.061-1.115 0.16-1.652 0.24-0.658 0.080-1.314 0.12-1.972 0.2-0.617 0.079-1.255 0.199-1.871 0.299-0.219 0.040-0.439 0.12-0.658 0.159-0.477 0.101-0.975 0.14-1.453 0.3-1.131 0.343-1.977 0.641-2.809 0.968l0.261-0.090c-0.777 0.318-1.534 0.657-2.27 1.056-0.757 0.419-1.474 0.917-2.191 1.396-0.677 0.459-1.354 0.937-2.011 1.455-0.637 0.499-1.233 1.057-1.812 1.615-0.319 0.318-0.578 0.698-0.878 1.056-0.496 0.579-0.994 1.137-1.472 1.735-0.398 0.499-0.757 1.017-1.135 1.536-0.677 0.916-1.255 1.893-1.792 2.871-0.124 0.211-0.33 0.603-0.528 1l-0.089 0.197c-0.299 0.598-0.617 1.177-0.896 1.793-0.182 0.377-0.345 0.822-0.466 1.284l-0.012 0.053c0.001-0.169-0.279 0.818-0.55 1.808l-0.267 1.143c-0.238 0.876-0.298 1.793-0.318 2.691-0.020 0.798 0.061 1.575 0.139 2.373 0.020 0.2-0.098 0.439 0.14 0.598-0.080 0.219-0.020 0.341 0.098 0.378-0.138 0.219 0.061 0.36-0.019 0.56-0.020 0.039 0.061 0.119 0.098 0.179 0 0.061-0.019 0.14 0 0.2 0.021 0.179 0.101 0.359 0.101 0.558 0 0.139 0.121 0.299 0.159 0.439 0.021 0.061 0 0.159-0.038 0.199-0.121 0.139-0.101 0.26 0.079 0.339 0.1 0.26 0.061 0.38 0.040 0.499 0.039 0.179-0.020 0.239 0 0.28 0.159 0.318 0.219 0.677 0.239 1.037 0 0.079 0.039 0.159 0.079 0.259 0.020 0 0 0.378 0 0.378 0.098-0.061 0.179-0.079 0.278-0.12 0.061 0.26 0.12 0.499 0.199 0.719 0.098 0.159 0.098 0.238 0.059 0.257 0.080 0.36 0.12 0.699 0.259 1.038 0-0.378-0.039-0.758-0.098-1.117 0.278 0.1 0.517 0.199 0.676 0.199 0.020-0.061 0.039-0.139 0.061-0.179-0.121-0.12-0.219-0.299-0.341-0.418 0.041 0.159 0 0.219 0 0.28-0.079-0.041-0.179-0.081-0.278-0.121 0.079-0.098 0.159-0.199 0.278-0.318 0-0.18-0.098-0.341-0.378-0.32 0.12-0.039 0.239-0.098 0.378-0.139 0.219-0.12-0.020-0.339-0.020-0.618 0.019-0.341-0.18-0.679-0.24-1.037-0.1-0.56-0.079-1.397-0.139-1.955-0.121-0.098-0.219 0.159-0.24 0.18 0.061 0.478 0.12 0.956 0.159 1.435-0.119-0.398-0.199-0.837-0.298-1.315-0.020 0.139-0.041 0.199-0.041 0.28-0.098 0.098-0.020 0.218 0.040 0.358-0.14-0.061-0.3-0.040-0.3-0.040v0.558c-0.199-0.199-0.259-0.359-0.359-0.499-0.039-0.159-0.061-0.318-0.098-0.477 0.038-0.101 0-0.16 0-0.219-0.014-0.078-0.035-0.242-0.054-0.407l-0.007-0.072c0.020-0.020-0.020-0.319-0.020-0.319 0.159 0.020 0.259 0.040 0.358 0.040-0.199-0.26-0.061-0.419 0.020-0.579 0.039-0.079 0.179-0.098 0.219-0.179 0.159-0.299 0.418-0.537 0.418-0.917 0-0.179 0.061-0.378 0.079-0.558 0.041-0.339 0.080-0.678 0.101-1.017 0.039-0.439 0-0.878 0.098-1.296 0.16-0.698 0.359-1.396 0.578-2.094 0.159-0.499 0.339-0.978 0.537-1.476 0.3-0.778 0.578-1.556 0.956-2.293 0.537-1.078 1.155-2.114 1.753-3.17 0.378-0.658 0.776-1.277 1.196-1.914 0.397-0.618 0.794-1.256 1.254-1.835 0.647-0.833 1.339-1.57 2.094-2.238l0.017-0.015c0.796-0.717 1.553-1.455 2.408-2.113 1.031-0.803 2.191-1.556 3.413-2.209l0.131-0.064c1.017-0.537 2.072-0.957 3.127-1.356 0.677-0.257 1.413-0.378 2.111-0.598 0.796-0.259 1.593-0.378 2.429-0.398 0.537-0.020 1.056-0.080 1.593-0.14 0.478-0.040 0.956-0.080 1.474-0.14-0.061 0.079-0.080 0.12-0.1 0.159-0.219 0.319-0.458 0.639-0.677 0.958-0.179 0.26-0.378 0.539-0.558 0.798-0.319 0.418-0.658 0.837-0.956 1.276-0.459 0.658-0.878 1.337-1.354 1.995-0.478 0.638-0.996 1.236-1.494 1.854-0.657 0.858-1.274 1.735-1.931 2.593-0.598 0.817-1.235 1.595-1.812 2.412-0.518 0.719-0.976 1.476-1.476 2.214-0.735 1.097-1.472 2.173-2.209 3.27-0.978 1.433-1.554 2.245-2.136 3.052l0.384-0.56c-0.040 0.061-0.1 0.079-0.159 0.12-0.159 0.259-0.159 0.399-0.219 0.518-0.159 0.299-0.318 0.598-0.498 0.878-0.1 0.159-0.239 0.299-0.359 0.458-0.020-0.239 0.318-0.359 0.159-0.658-0.098 0.16-0.199 0.3-0.298 0.459l-0.24 0.478c0.079 0.059 0.219 0.098 0.079 0.219-0.061 0.098-0.12 0.219-0.179 0.318 0.088-0.052 0.161-0.118 0.218-0.197l0.001-0.002c0 0.219-0.119 0.399-0.219 0.579-0.079 0.159-0.278 0.278-0.416 0.399 0.019 0.019 0.159 0.079 0.179 0.098 0.179-0.061 0.238-0.159 0.259-0.098 0.061-0.081 0.12-0.141 0.139-0.201 0.079-0.199 0.199-0.359 0.398-0.439 0.080-0.039 0.14-0.098 0.199-0.159 0.598-0.618 1.216-1.217 1.753-1.875 0.837-1.016 1.594-2.073 2.39-3.11 0.339-0.439 0.737-0.878 1.096-1.296 0.059 0.459 0.020 0.897 0 1.317-0.061 0.737-0.1 1.476-0.159 2.232-0.020 0.3 0 0.598-0.020 0.897 0 0.080-0.061 0.14-0.061 0.219 0 0.2 0.061 0.418 0.061 0.618-0.061 0.738-0.14 1.456-0.199 2.194-0.020 0.159 0.059 0.318 0.098 0.458-0.098 1.077 0.121 2.213-0.059 3.35 0.139-0.219 0.179-0.36 0.179-0.499 0.020-0.12 0-0.239 0-0.378v-0.2c0.020-0.359 0.1-0.738 0.061-1.097-0.041-0.399-0.041-0.777 0.039-1.156 0.039-0.159-0.020-0.359 0.079-0.558v0.299c-0.020 1.137 0.019 2.273-0.14 3.41-0.020 0.098 0.061 0.278-0.159 0.259-0.18 0.359 0.039 0.618-0.159 0.817-0.041 0.040 0.038 0.219 0.059 0.339-0.080 0.24-0.080 0.24 0.039 0.26 0.020 0.439 0.061 0.838 0.079 1.256 0.318-0.757 0.159-1.536 0.299-2.313 0.020 0.319 0.040 0.639 0.020 0.978 0 0.518-0.019 1.017-0.038 1.536 0 0.098-0.020 0.198-0.041 0.298-0.061 0.28-0.079 0.558-0.179 0.817-0.080 0.2-0.040 0.499-0.040 0.738v0.757c0.079 0.341-0.020 0.519 0.039 0.719-0.061 0.199-0.080 0.259-0.061 0.318l0.061 0.3c0.398-0.039 0.219 0.26 0.378 0.419-0.121 0.159-0.080 0.219-0.080 0.299 0 0.179-0.020 0.339-0.040 0.518 0 0.459-0.019 0.917-0.019 1.356 0 0.061 0.020 0.12 0.020 0.179 0 0.039-0.019 0.558-0.019 0.558 0.040 0.061 0 0.12-0.061 0.179-0.019 0-0.079-2.533-0.079-2.533h-0.298c-0.039 1.197 0.061 2.274-0.159 3.39-0.239 0.020-0.318 0.061-0.577 0.061-0.617 0-1.235 0-1.852 0.020-0.737 0-1.453 0.020-2.191 0.020-0.358 0-0.736 0.039-1.095 0.039-0.478 0-0.976-0.061-1.453-0.061-0.738 0-1.454 0.061-2.191 0.080-0.537 0.020-1.074 0.020-1.612 0.040-0.42 0.020-0.792 0.049-1.161 0.087l0.085-0.007c-0.159 0.020-0.299 0.080-0.498 0.14-0.061 0-0.199-0.020-0.318 0-0.2 0.040-0.378 0.159-0.578 0.2-0.299 0.061-0.378 0.14-0.339 0.439v0.199c-0.020 0.040 0.439-0.061 0.439-0.061-0.041 0-0.061 0.121-0.121 0.219 0.16-0.059 0.26-0.098 0.359-0.138 0.299 0.139 0.558 0.061 0.797 0.12 0.776 0.199 1.572 0.28 2.368 0.359 0.518 0.040 1.016 0.061 1.534 0.080 0.737 0.039 1.474 0.079 2.209 0.079 0.618 0 1.216-0.061 1.833-0.061 0.855 0 1.712 0.041 2.568 0.061 0.179 0 0.378-0.020 0.577-0.020h1.453c1.295-0.039 2.59-0.059 3.884-0.098 0.737-0.021 1.494-0.061 2.23-0.081l2.27-0.061c0.876-0.019 1.752-0.019 2.609-0.038 0.657 0 1.294-0.021 1.952-0.041 0.735-0.020 1.492-0.080 2.229-0.121 0.482-0.028 0.894-0.063 1.304-0.108l-0.109 0.010c0.477-0.041 0.976-0.101 1.453-0.121 0.717-0.039 1.453-0.059 2.172-0.098 0.895-0.061 1.791-0.14 2.707-0.16 0.838-0.039 1.693-0.020 2.53-0.039 0.736-0.020 1.473-0.061 2.23-0.080l1.256-0.061s0.835-0.019 1.254-0.059c0.717-0.040 1.433-0.12 2.15-0.139 0.457-0.020 0.916 0 1.373-0.020 0.736-0.019 1.493-0.059 2.23-0.059 0.278 0 0.577 0.040 0.936 0.061-0.16 0.139-0.26 0.219-0.378 0.318 0.079 0.020 0.159 0.061 0.238 0.101-0.087 0.062-0.195 0.1-0.312 0.1-0.002 0-0.004 0-0.006-0h0c-0.041 0.098-0.081 0.139-0.121 0.338h0.359c-0.14 0-0.26 0.18-0.399 0.3-0.159-0.040-0.299 0-0.378 0.219 0.139 0.079 0.12 0.139 0.1 0.219-0.239 0.079-0.418 0.159-0.318 0.418-0.081 0.040-0.18 0.079-0.28 0.139-0.098 0.159-0.278 0.2-0.239 0.419 0.079 0.020 0.159 0.061 0.219 0.080-0.101 0.040-0.2 0.1-0.3 0.14-0.359 0.219-0.199 0.319-0.12 0.419-0.061 0.040-0.12 0.079-0.179 0.1 0.039 0.179 0.098 0.219 0.119 0.219-0.079 0.061-0.179 0.139-0.298 0.239-0.061 0.179-0.14 0.259-0.219 0.378-0.079 0.121-0.12 0.28-0.219 0.399-0.418 0.459-0.717 0.997-1.254 1.354-0.199 0.141-0.378 0.32-0.558 0.499-0.359 0.339-0.678 0.719-1.056 1.037-0.452 0.377-0.958 0.763-1.48 1.128l-0.073 0.049c-0.656 0.459-1.313 0.917-1.97 1.356-0.358 0.239-0.757 0.418-1.135 0.638s-0.736 0.419-1.115 0.639c-0.239 0.159-0.459 0.378-0.717 0.498-0.657 0.28-1.354 0.518-2.031 0.778-0.656 0.28-1.135 0.518-1.632 0.698-0.458 0.159-0.936 0.28-1.413 0.378-0.159 0.041-0.339 0-0.518 0.020-0.338 0.059-0.676 0.139-1.015 0.179-0.876 0.12-1.752 0.199-2.628 0.318-0.518 0.061-1.015 0.16-1.534 0.219-0.358 0.020-0.736-0.019-1.095-0.019-0.257 0-0.537 0.061-0.796 0.020-0.418-0.061-0.836-0.159-1.255-0.239-0.098-0.020-0.238-0.061-0.318-0.020-0.159 0.080-0.299-0.039-0.459 0-0.098 0.020-0.199-0.061-0.299-0.061-0.080-0.019-0.179 0.021-0.28 0-0.219-0.059-0.418-0.138-0.656-0.119s-0.478-0.098-0.737-0.159c-0.359-0.080-0.698-0.159-1.056-0.24-0.152-0.047-0.284-0.108-0.406-0.183l0.008 0.004c-0.518 0-0.857-0.020-1.175-0.139-0.278-0.1-0.537-0.24-0.836-0.2-0.079 0.020-0.139-0.020-0.219-0.020-0.061-0.080-0.119-0.239-0.179-0.239-0.399 0.020-0.638-0.319-0.976-0.419-0.179-0.061-0.318-0.259-0.498-0.318-0.439-0.182-0.796-0.56-1.294-0.619-0.159-0.020-0.318-0.1-0.498-0.159 0.061 0.079 0.098 0.138 0.159 0.198-0.577-0.28-1.115-0.598-1.653-0.897-0.079-0.021-0.139-0.101-0.199-0.141l-0.537-0.359c-0.298 0.061-0.418-0.061-0.497-0.1-0.537-0.378-1.155-0.618-1.672-1.037-0.219-0.179-0.479-0.3-0.638-0.518-0.28-0.339-0.617-0.579-0.996-0.778-0.299-0.159-0.577-0.339-0.855-0.518-0.141-0.1-0.28-0.219-0.28-0.439 0-0.139-0.061-0.28-0.239-0.199-0.079-0.121-0.159-0.26-0.259-0.3-0.239-0.098-0.398-0.278-0.577-0.437s-0.318-0.378-0.537-0.459c-0.399-0.159-0.638-0.498-0.876-0.777-0.558-0.658-1.056-1.377-1.574-2.073-0.039-0.061-0.119-0.101-0.179-0.16 0.079 0.219 0.179 0.399 0.278 0.598-0.199-0.079-0.338-0.219-0.458-0.358-0.020 0.020 1.374 2.312 1.374 2.312 0.12 0.179 0.219 0.359 0.338 0.537-0.018 0.002-0.038 0.003-0.059 0.003-0.231 0-0.433-0.128-0.537-0.318l-0.002-0.003c-0.179-0.319-0.378-0.519-0.776-0.479-0.037-0.119-0.072-0.267-0.097-0.419l-0.003-0.020c-0.079 0-0.139 0-0.28-0.020 0.28 0.439 0.519 0.817 0.778 1.256-0.1-0.059-0.159-0.098-0.199-0.119 0.358 0.378 0.617 0.857 1.074 1.097 0.1 0.458 0.617 0.677 0.737 1.116-0.098-0.020-0.179-0.040-0.278-0.061-0.16-0.199-0.341-0.398-0.518-0.617 0.039 0.139 0.098 0.259 0.179 0.359 0.24 0.299 0.459 0.598 0.738 0.857 0.1 0.098 0.239 0.139 0.239 0.318 0.159 0.080 0.219 0.101 0.28 0.101 0.039 0.12-0.020 0.299 0.219 0.259 0.159 0.299 0.318 0.299 0.537 0.2 0.257 0.257 0.398 0.278 0.577 0.119 0 0.1 0.020 0.199 0.020 0.28 0.079-0.041 0.059-0.101 0.059-0.201 0.098 0.080 0.159 0.12 0.199 0.159 0.2 0.28 0.378 0.539 0.658 0.758 0.378 0.319 0.717 0.658 1.074 0.957 0.696 0.577 1.474 1.056 2.25 1.495 0.956 0.537 1.872 1.116 2.847 1.634 1.175 0.618 2.429 1.037 3.723 1.336 0.715 0.142 1.191 0.253 1.664 0.373l-0.249-0.053c0.418 0.12 0.836 0.299 1.255 0.399 0.637 0.14 1.294 0.26 1.931 0.378 0.139 0.021 0.28 0.041 0.439 0.061 0.179 0.040 0.398-0.039 0.437 0.020 0.1 0.159 0.179 0.079 0.299 0.061 0.139-0.041 0.299-0.041 0.458-0.041 0.558 0.020 1.096 0.139 1.653 0.1 0.119 0 0.298-0.1 0.398 0.1 0.179-0.080 0.278-0.080 0.358-0.1 0.020 0.179 0 0.179-0.040 0.199s-0.1 0.040-0.179 0.1c0.717 0.139 1.394 0.159 1.99 0 1.037 0.079 1.933-0.040 2.789-0.339 0.079 0.1 0.139 0.239 0.259 0.040 0.039-0.061 0.139-0.080 0.219-0.1 0.179-0.040 0.398-0.12 0.557-0.061 0.179 0.061 0.239-0.098 0.378-0.098 0.239 0 0.458-0.020 0.677-0.061 0.119-0.020 0.238-0.079 0.378-0.12-0.126-0.063-0.274-0.1-0.431-0.1-0.003 0-0.005 0-0.008 0h0c0.239-0.12 0.458-0.219 0.677-0.318-0.040 0.059-0.080 0.138-0.159 0.138h0.278c-0.061 0-0.14 0.179-0.239 0.299 0.717-0.179 1.374-0.338 2.011-0.497-0.219-0.419 0.238-0.28 0.398-0.519-0.198 0.061-0.397 0.121-0.598 0.159 0.678-0.338 1.375-0.637 2.052-0.936-0.1 0.12-0.219 0.179-0.398 0.28 0.12 0.019 0.199 0.019 0.259 0.038 0.318 0.101 0.239-0.198 0.338-0.378 0.378 0 0.537-0.059 0.717-0.119 0.199-0.061 0.398-0.121 0.598-0.2 0.318-0.14 0.617-0.32 0.935-0.479 0.059-0.020 0.159 0 0.238 0 0.219-0.14 0.298-0.26 0.358-0.24 0.28 0.040 0.478-0.061 0.558-0.318 0.139-0.101 0.239-0.18 0.339-0.24 0.437-0.24 0.855-0.479 1.294-0.719 0.159 0 0.239 0 0.278-0.019 0.26-0.121 0.499-0.26 0.738-0.399-0.061-0.020-0.199-0.098-0.199-0.098 0.199-0.041 0.259-0.061 0.378-0.101 0.478-0.558 1.135-0.937 1.633-1.376 0.219-0.021 0.219-0.081 0.219-0.121 0.079-0.098 0.159-0.219 0.257-0.299 0.439-0.399 0.917-0.738 1.315-1.156 0.565-0.562 1.105-1.147 1.62-1.754l0.034-0.041c0.477-0.558 0.956-1.116 1.354-1.734 0.557-0.857 1.034-1.735 1.532-2.633 0.359-0.637 0.677-1.275 1.037-1.913 0.038-0.061 0.119-0.14 0.179-0.14 0.537-0.061 1.074-0.098 1.593-0.159 0.119-0.020 0.257-0.1 0.378-0.159-0.061-0.101-0.101-0.219-0.16-0.32-0.079-0.12-0.199-0.219-0.278-0.339-0.073-0.099-0.14-0.21-0.194-0.329l-0.005-0.012c-0.061-0.098-0.12-0.179-0.179-0.278-0.12-0.219-0.239-0.439-0.338-0.678-0.020-0.061-0.061-0.159-0.040-0.219 0.359-0.777 0.498-1.615 0.836-2.393 0.339-0.798 0.439-1.695 0.598-2.552 0.139-0.817 0.219-1.634 0.318-2.452 0.061-0.578 0.14-1.137 0.159-1.715 0.121-0.917 0.080-1.774 0.061-2.633-0.020-0.757-0.061-1.535-0.098-2.293zM31.994 18.122c0.637-0.878 1.294-1.755 1.932-2.652 0.199-0.26 0.358-0.537 0.557-0.798 0.061-0.079 0.141-0.12 0.24-0.2l-0.020-0.040c0.080-0.1 0.159-0.179 0.2-0.26 0.1-0.159 0.159-0.339 0.239-0.518 0.020-0.041 0.079-0.080 0.079-0.080 0.28 0.139 0.28-0.159 0.378-0.26 0.179-0.198 0.359-0.418 0.518-0.617 0.119-0.159 0.238-0.299 0.338-0.478 0.020-0.061-0.040-0.159-0.061-0.239h-0.059c0.059-0.040 0.119-0.1 0.179-0.14 0.020 0 0.020 0 0.039-0.019 0.12-0.179 0.239-0.359 0.359-0.518 0.239-0.319 0.498-0.639 0.776-0.918-0.046 0.121-0.086 0.213-0.13 0.303l0.010-0.023c0.020 0 0.020 0.020 0.040 0.020 0.239-0.319 0.498-0.618 0.737-0.938-0.020-0.019-0.040-0.038-0.061-0.038-0.098 0.098-0.179 0.198-0.278 0.298-0.020-0.020-0.040-0.040-0.061-0.040 0.2-0.259 0.399-0.518 0.598-0.817 0.040 0.061 0.079 0.139 0.159 0.299 0.080-0.201 0.159-0.341 0.219-0.479-0.061 0.061-0.139 0.12-0.199 0.179l-0.061-0.061 0.359-0.537c0.378-0.539 0.757-1.097 1.135-1.636 0.141-0.199 0.32-0.359 0.439-0.558 0.378-0.757 0.976-1.354 1.434-2.054 0.1-0.139 0.239-0.259 0.359-0.378 0.098-0.12 0.179-0.080 0.257 0.020 0.537 0.678 1.076 1.376 1.614 2.054 0.398 0.499 0.796 0.976 1.174 1.496 0.458 0.638 0.896 1.276 1.354 1.914 0.518 0.737 1.035 1.476 1.533 2.232 0.757 1.117 1.474 2.234 2.231 3.351 0.558 0.817 1.115 1.615 1.653 2.432h-1.016c-0.935-0.020-1.892-0.1-2.827-0.061-1.275 0.061-2.569 0.2-3.844 0.3-1.612 0.139-3.246 0.159-4.858 0.159-0.578 0-1.155 0.080-1.733 0.121-0.696 0.038-1.374 0.079-2.071 0.098-0.624 0.031-1.472 0.060-2.322 0.078l-0.107 0.002c-0.459 0.020-0.936 0-1.434 0zM54.833 27.293v0.182c-0.020 0-0.039 0.019-0.079 0.019-0.079-0.28-0.159-0.578-0.257-0.857-0.2-0.578-0.419-1.158-0.777-1.675-0.399-0.558-0.757-1.137-1.155-1.715-0.098-0.139-0.239-0.259-0.358-0.378-0.418-0.459-0.837-0.938-1.374-1.277-0.708-0.452-1.526-0.88-2.382-1.237l-0.108-0.040c-0.274-0.119-0.503-0.239-0.721-0.373l0.025 0.014h0.477l3.405-0.061c0.737-0.019 1.454-0.019 2.191-0.059 0.179 0 0.278 0.061 0.378 0.219 0.179 0.299 0.358 0.598 0.557 0.897 0.020 0.039 0.059 0.098 0.059 0.159 0 0.439 0 0.897 0.020 1.336 0.020 0.459 0.061 0.897 0.079 1.356 0 0.459-0.040 0.937-0.020 1.415 0.020 0.679 0.039 1.377 0.039 2.073zM33.407 20.615c0.936-0.040 1.831-0.1 2.748-0.14 0.717-0.038 1.453-0.059 2.17-0.098 0.299-0.020 0.578-0.040 0.876 0-0.318 0.159-0.637 0.318-0.916 0.518-0.359 0.239-0.696 0.558-1.056 0.817s-0.677 0.578-0.976 0.917c-0.378 0.459-0.796 0.857-1.194 1.296-0.28 0.319-0.598 0.618-0.837 0.957-0.339 0.439-0.638 0.917-0.956 1.415 0.1-1.894 0.219-3.768 0.139-5.683zM46.41 39.797c-0.637 0.159-1.294 0.339-1.952 0.418-0.557 0.079-1.135 0.059-1.712 0.059-0.518 0-1.016-0.020-1.534-0.061-0.577-0.059-1.155-0.119-1.712-0.378-0.478-0.219-0.976-0.418-1.453-0.658-0.479-0.238-0.956-0.518-1.315-0.956-0.259-0.319-0.617-0.578-0.936-0.857 0.061 0.24 0.199 0.439 0.418 0.579-0.098 0.12-0.238 0.061-0.437-0.26-0.061 0.040-0.12 0.061-0.159 0.080 0.059-0.14 0.119-0.28 0.179-0.399-0.079-0.159-0.179-0.338-0.259-0.498-0.159-0.26-0.318-0.537-0.458-0.798-0.039-0.061-0.039-0.12-0.079-0.179-0.093-0.106-0.185-0.223-0.271-0.344l-0.009-0.014c-0.159-0.24-0.297-0.499-0.497-0.738 0 0.061 0.020 0.12 0.020 0.199-0.020 0-0.040 0.020-0.040 0.020l-0.418-1.016c-0.020 0-0.020 0-0.039 0.020l0.358 1.317c-0.019 0-0.038 0.019-0.058 0.019-0.062-0.075-0.115-0.16-0.156-0.252l-0.003-0.007c-0.041-0.159-0.16-0.159-0.26-0.1-0.061 0.040-0.1 0.179-0.079 0.239 0.139 0.341 0.298 0.679 0.458 1.018 0.040 0.12 0.079 0.219 0.139 0.339 0.020 0.040 0.079 0.080 0.079 0.14 0.079 0.159 0.139 0.318 0.238 0.459 0.179 0.239 0.378 0.478 0.558 0.717s0.338 0.499 0.498 0.738c0.020 0.040 0.079 0.040 0.098 0.061 0.101 0.299 0.439 0.518 0.678 0.398 0.061 0.459 0.558 0.618 0.757 1.057-0.254-0.103-0.444-0.19-0.63-0.284l0.053 0.024c-0.020 0.020-0.020 0.040-0.040 0.080 0.239 0.12 0.478 0.239 0.696 0.378 0.201 0.121 0.4 0.24 0.579 0.378 0.238 0.219 0.518 0.341 0.855 0.42-0.008-0.031-0.021-0.057-0.038-0.081l0 0.001c0.556 0.26 1.135 0.539 1.572 0.758-2.071 0.039-4.281 0.079-6.572 0.12 0-0.378-0.020-0.738-0.020-1.117 0-0.159 0.040-0.299 0.020-0.459-0.061-0.917-0.061-1.834-0.179-2.732-0.118-0.957-0.118-1.895-0.098-2.851 0.020-0.519-0.020-1.057-0.040-1.575 0-0.698 0-1.376 0.020-2.073 0-0.101 0.039-0.18 0.079-0.28h0.059c0.020 0.040 0 0.1 0.039 0.12 0.061 0.061 0.159 0.159 0.2 0.14 0.119-0.080 0.298-0.159 0.338-0.28 0.101-0.238 0.14-0.498 0.14-0.737 0-0.18 0.079-0.3 0.159-0.419 0.040-0.061 0.061-0.121 0.1-0.2-0.079-0.061-0.159-0.1-0.259-0.179 0.079-0.219 0.061-0.479 0.359-0.598 0.038-0.020 0.038-0.121 0.059-0.18 0.020-0.159 0.039-0.339 0.061-0.499 0.038 0.061 0.059 0.081 0.098 0.121 0.020-0.040 0.040-0.061 0.040-0.061 0-0.079-0.019-0.239 0-0.239 0.24-0.038 0.14-0.298 0.26-0.418 0.020-0.020-0.020-0.080-0.020-0.12s0-0.1 0.020-0.1c0.278-0.061 0.239-0.359 0.418-0.499 0.061-0.038 0.079-0.098 0.159-0.198 0.159 0.28-0.12 0.418-0.139 0.618 0.338-0.2 0.439-0.678 0.239-0.817 0.079-0.061 0.159-0.14 0.219-0.219 0.219-0.24 0.458-0.459 0.657-0.698 0.139-0.179 0.219-0.399 0.358-0.578 0.079-0.1 0.238-0.179 0.358-0.239 0.359-0.2 0.696-0.419 0.916-0.758 0.040-0.039 0.1-0.079 0.159-0.12 0.061-0.040 0.18-0.040 0.2-0.1 0.020-0.039-0.039-0.139-0.079-0.199 0.079-0.040 0.159-0.12 0.318-0.2-0.059 0.121-0.079 0.201-0.119 0.28l0.1 0.1c0.179-0.139 0.458-0.299 0.637-0.418 0-0.021-0.101-0.101-0.101-0.101-0.12 0.061-0.298 0.159-0.477 0.239 0.038-0.061 0.038-0.1 0.059-0.12 0.278-0.179 0.557-0.359 0.855-0.499 0.698-0.318 1.395-0.637 2.091-0.936 0.119-0.061 0.278-0.020 0.418-0.020 0.061 0 0.1 0 0.159-0.019 0.319-0.1 0.638-0.199 0.956-0.28 0.131-0.037 0.282-0.059 0.438-0.059 0 0 0 0 0.001 0h-0c0.596 0.020 1.194 0.020 1.791 0.061 0.259 0.019 0.498 0.079 0.737 0.159 0.298 0.1 0.617 0.239 0.896 0.378 0.339 0.18 0.658 0.378 0.976 0.598 0.578 0.38 1.115 0.798 1.693 1.137 0.558 0.339 0.996 0.798 1.354 1.317 0.439 0.617 0.936 1.176 1.135 1.933l0.298 1.317c0.061 0.239 0.201 0.478 0.141 0.757-0.1 0.499-0.179 1.018-0.259 1.516-0.040 0.198-0.080 0.398-0.061 0.598 0.040 0.617-0.199 1.156-0.437 1.714-0.080 0.18-0.199 0.359-0.299 0.558 0.046 0.033 0.098 0.060 0.155 0.079l0.004 0.001 0.18-0.36c0.020 0 0.020 0 0.040 0.020-0.098 0.28-0.179 0.579-0.278 0.858-0.239 0.618-0.478 1.256-0.777 1.854-0.159 0.339-0.439 0.618-0.637 0.938-0.199 0.278-0.359 0.577-0.558 0.837-0.179 0.219-0.358 0.439-0.598 0.598-0.537 0.399-1.095 0.798-1.672 1.117-0.358 0.219-0.776 0.339-1.174 0.439zM48.183 41.471c0.896-0.378 1.633-0.918 2.309-1.536 0.098-0.1 0.199-0.199 0.318-0.28 0.837-0.518 1.453-1.236 2.011-2.033 0.637-0.917 1.056-1.954 1.574-2.931 0.039-0.080 0.079-0.159 0.119-0.219-0.039 2.273 0.219 4.506 0.518 6.759-2.25 0.079-4.54 0.159-6.85 0.239zM68.373 40.873c-0.019 0.038-0.059 0.079-0.079 0.119-0.020-0.040-0.020-0.1-0.040-0.179-0.12 0.318-0.378 0.159-0.558 0.159-1.074 0.020-2.17 0.020-3.246 0.020-1.035 0-2.090 0-3.125 0.020-0.339 0-0.698 0.080-1.037 0.1-0.816 0.040-1.632 0.061-2.449 0.079-0.061 0-0.12-0.098-0.219-0.179-0.020 0.040-0.061 0.1-0.119 0.179-0.020-0.039-0.061-0.079-0.1-0.139-0.019 0.061-0.039 0.12-0.059 0.159h-0.061c-0.039-0.278-0.119-0.537-0.119-0.817 0-0.598 0.061-1.196 0.079-1.793 0.020-0.28 0-0.54 0-0.798 0.080 0.061 0.14 0.1 0.219 0.159 0.040-0.079 0.079-0.138 0.12-0.198 0 0-0.040-0.020-0.079-0.061 0.039-0.020 0.079-0.059 0.079-0.079 0.020-0.061 0.061-0.12 0.061-0.159 0-0.14-0.041-0.26-0.061-0.378 0.020 0 0.039 0 0.061-0.020l0.119 0.598h0.061c-0.081-0.139 0.178-0.259-0.041-0.418-0.019-0.020 0.020-0.14 0.020-0.2-0.061-0.121-0.098-0.24-0.159-0.4 0.020-0.020 0.079-0.040 0.139-0.061-0.079-0.039-0.138-0.079-0.198-0.098 0.199-0.18 0.199-0.28 0.020-0.479 0.040-0.020 0.079-0.020 0.079-0.041 0-0.179 0-0.359-0.040-0.537-0.040-0.201 0.061-0.439-0.239-0.56 0.020 0.061 0.047 0.114 0.081 0.162l-0.001-0.002s-0.061 0.020-0.12 0.061c-0.259-0.24-0.098-0.56-0.159-0.918 0.139 0.039 0.239 0.079 0.338 0.12-0.039-0.14-0.139-0.3-0.199-0.479h-0.079v-1.316c0 0.020 0.139 0.020 0.219 0.041 0-0.020 0.020-0.040 0.020-0.061-0.061-0.079-0.14-0.159-0.219-0.259l0.040-0.040c-0.159-0.2-0.080-0.479-0.080-0.539v-1.396c0.2 0.2-0.098 0.459 0.2 0.579v-0.2h-0.020c-0.020-0.299-0.020-0.598-0.039-0.897h-0.040c-0.020 0.040-0.020 0.061-0.040 0.1h-0.040l0.12-4.765c0.199 0.26 0.418 0.499 0.557 0.757 0.459 0.838 1.056 1.556 1.614 2.314 0.478 0.658 0.916 1.376 1.354 2.054 0.537 0.817 1.055 1.634 1.593 2.453 0.398 0.617 0.817 1.236 1.233 1.834 0.378 0.537 0.778 1.057 1.176 1.575 0.338 0.459 0.696 0.917 1.035 1.376 0.399 0.558 0.797 1.117 1.196 1.655 0.199 0.28 0.418 0.558 0.636 0.838 0.121 0.159 0.3 0.28 0.419 0.378-0.020 0-0.040 0-0.079-0.020 0.059 0.080 0.098 0.14 0.138 0.179 0.219 0.12 0.239 0.24 0.12 0.419zM69.389 35.887v-0.139c0 0.040 0.020 0.1 0 0.14zM70.067 27.094c-0.020 0-0.139-0.12-0.159-0.14-0.020 0.061 0 0.121-0.040 0.2-0.020-0.061-0.159-0.041-0.159-0.101-0.020 0.28 0.119 0.558 0.098 0.838 0.061-0.040 0.299-0.061 0.359-0.12 0.021 0.020 0.048 0.035 0.079 0.040l0.001 0c-0.399 0.298-0.299 0.598-0.12 0.936 0.039 0.079 0.159 0.239 0.039 0.399-0.040 0.040 0.020 0.159 0.039 0.26h0.061v0.039l-0.18 0.059c-0.040-0.061-0.278-0.179-0.278-0.28v1.018c0.199 0.061 0.199 0.339 0.278 0.479 0.032-0.046 0.059-0.098 0.078-0.155l0.001-0.004 0.020 0.019c-0.020 0.121-0.040 0.241-0.080 0.36-0.039 0.179-0.079 0.339-0.098 0.518 0 0.020 0.038 0.061 0.038 0.080-0.218 0.499-0.098 1.057-0.178 1.575-0.061 0.378 0 0.778-0.040 1.177-0.040 0.339-0.12 0.698-0.199 1.037-0.020 0.061-0.061 0.079-0.16 0.12 0.040-0.238 0.020-0.398-0.020-0.617-0.020 0-0.278-0.139-0.299-0.139 0 0.28 0.159 0.658 0.219 0.976-0.061-0.019-0.299-0.159-0.318-0.159-0.041 0.239-0.041 0.558-0.061 0.817-0.020 0.2-0.199 0.378-0.219 0.598 0 0.121 0.139 0.201 0.12 0.4h0.159c0-0.399 0.18-0.757 0.18-1.177h0.059c0.021 0.040 0.081 0.080 0.061 0.1-0.039 0.219-0.119 0.459-0.098 0.678 0 0.121 0.098 0.24 0.059 0.38-0.040 0.12-0.061 0.239-0.079 0.418-0.020-0.1-0.040-0.139-0.040-0.199-0.020 0-0.199-0.020-0.219-0.020-0.020 0.12 0.14 0.24 0.12 0.339-0.020 0.020-0.039 0.020-0.079 0.040l-0.657-0.957c-0.518-0.757-1.037-1.515-1.553-2.293-0.122-0.171-0.241-0.367-0.346-0.571l-0.012-0.027c-0.684-1.17-1.362-2.167-2.098-3.114l0.048 0.064c-0.577-0.738-1.037-1.536-1.574-2.312-0.497-0.738-0.995-1.456-1.493-2.194-0.179-0.238-0.398-0.458-0.558-0.717-0.518-0.817-0.976-1.655-1.493-2.472-0.439-0.678-0.916-1.336-1.374-1.994-0.16-0.219-0.319-0.459-0.479-0.698-0.024-0.040-0.038-0.088-0.039-0.14v-0c-0.040-0.439-0.080-0.878-0.1-1.296 0-0.399 0.040-0.798 0.040-1.216v-0.359c0-0.098 0.020-0.179 0.020-0.28 0.020-0.019 0.040-0.059 0.061-0.079-0.578 0-1.176-0.020-1.753 0-0.378 0.020-0.577-0.139-0.836-0.418-0.757-0.858-1.314-1.835-1.971-2.752-0.617-0.878-1.255-1.734-1.892-2.592-0.518-0.698-1.037-1.376-1.553-2.073-0.577-0.798-1.135-1.595-1.733-2.393-0.717-0.957-1.453-1.914-2.19-2.872-0.339-0.439-0.717-0.857-1.096-1.317 0.26 0.041 0.498 0.080 0.737 0.101l0.956 0.061c0.717 0.059 1.434 0.098 2.15 0.198 0.598 0.080 1.194 0.2 1.811 0.3 1.314 0.219 2.608 0.578 3.863 0.997 0.736 0.24 1.453 0.56 2.17 0.858 1.612 0.658 3.146 1.456 4.659 2.293 0.477 0.26 0.757 0.679 1.115 1.057 0.518 0.54 1.035 1.078 1.533 1.636 0.577 0.658 1.115 1.336 1.672 2.014 0.498 0.598 1.015 1.196 1.513 1.793 0.159 0.18 0.28 0.4 0.418 0.599 0.318 0.478 0.676 0.937 0.955 1.455 0.199 0.378 0.318 0.817 0.458 1.236 0.199 0.618 0.399 1.217 0.598 1.834 0.139 0.459 0.259 0.938 0.358 1.415 0.080 0.32 0.061 0.658 0.159 0.978 0.121 0.418 0 0.878 0.121 1.295 0.019 0.040 0.038 0.1 0.059 0.14 0.079 0.079 0.139 0.159 0.020 0.28-0.020 0.019-0.020 0.098 0 0.159 0.040-0.040 0.061-0.080 0.1-0.14 0 0.040 0.020 0.061 0.020 0.080 0 0.079-0.020 0.159 0 0.239 0 0.040 0.040 0.1 0.061 0.139 0.039-0.039 0.079-0.061 0.159-0.12 0.179 0.678 0.199 1.356 0.199 2.054 0 0.658 0.12 1.317-0.159 1.955 0.059-0.219-0.080-0.419-0.020-0.618zM23.154 27.533c0.219-0.28 0.439-0.558 0.677-0.838 0.020 0.020 0.179 0.061 0.199 0.079-0.219 0.28-0.518 0.658-0.737 0.957-0.040-0.040-0.1-0.179-0.139-0.199zM17.498 37.303c-0.159-0.339-0.318-0.698-0.477-1.037 0.051-0.033 0.11-0.060 0.173-0.079l0.005-0.001c0.219 0.319 0.318 0.698 0.477 1.037 0 0-0.159 0.080-0.179 0.080zM22.645 28.745c-0.129 0.065-0.225 0.136-0.209 0.323 0 0.059-0.098 0.138-0.199 0.198-0.179 0.219-0.439 0.558-0.617 0.758 0.061 0.020 0.16 0.020 0.16 0.039 0 0.061 0 0.14-0.040 0.179-0.2 0.159-0.399 0.3-0.578 0.459-0.039 0.020-0.061 0.098-0.079 0.139-0.079 0.159-0.098 0.378-0.378 0.339 0.020-0.2-0.039-0.299-0.278-0.239 0.159-0.26 0.298-0.459 0.437-0.678 0.219-0.179 0.419-0.339 0.618-0.518l0.359-0.24c0.080-0.061 0.14-0.139 0.219-0.199 0 0.020 0.061-0.020 0.1-0.040 0.061-0.159 0.12-0.339 0.179-0.499-0.020-0.019-0.020-0.038-0.041-0.059-0.079 0.12-0.139 0.24-0.219 0.359l-0.020-0.021c-0.179 0.159-0.418 0.419-0.557 0.558 0.004-0.065 0.018-0.127 0.041-0.183l-0.001 0.004c0.12-0.12 0.259-0.219 0.378-0.339 0 0 0.061-0.020 0.1-0.061l-0.020-0.019c0.041-0.1 0.061-0.2 0.081-0.24 0.098-0.079 0.199-0.098 0.219-0.159 0.079-0.219 0.138-0.3 0.298-0.28 0-0.039 0-0.059-0.039-0.098 0.12-0.080 0.239-0.18 0.359-0.26 0.020 0.020 0.040 0.020 0.061 0.039-0.080 0.12-0.080 0.219-0.16 0.359 0 0-0.061 0.020-0.098 0.020-0.041 0.061-0.080 0.12-0.101 0.179 0 0.020 0.020 0.079 0.1 0.139l-0.011 0.005 0.070 0.036c0.079-0.139 0.159-0.26 0.239-0.399l0.079 0.079-0.18 0.3-0.537 0.778c-0.040 0.061-0.080 0.159-0.14 0.18-0.061 0.020-0.139-0.020-0.219-0.061 0.268-0.076 0.536-0.446 0.628-0.882zM16.722 34.911c0.079 0.199 0.159 0.418 0.239 0.618-0.061 0.020-0.113 0.047-0.161 0.081l0.002-0.001c-0.080-0.2-0.18-0.418-0.26-0.618 0.051-0.037 0.112-0.064 0.177-0.079l0.003-0.001zM61.047 53.973c0.098-0.040 0.218-0.061 0.378-0.1-0.18 0.139-0.319 0.239-0.439 0.359-0.020-0.020-0.040-0.040-0.061-0.040 0.040-0.079 0.080-0.138 0.121-0.218z"></path>
</svg>
