<!-- Generated by IcoMoon.io -->
<svg version="1.1" xmlns="http://www.w3.org/2000/svg" width="48" height="60" viewBox="0 0 48 60">
<title>thought-cloud</title>
<path fill="#3b5999" d="M39.562 12.267c-1.849-4.928-6.601-8.437-12.175-8.437-4.642 0-8.712 2.434-11.013 6.094-0.54-0.068-1.088-0.108-1.645-0.108-7.18 0-13 5.82-13 13.001 0 2.914 0.959 5.604 2.578 7.772-1.020 1.154-1.641 2.67-1.641 4.332 0 1.203 0.326 2.329 0.892 3.298-0.18-0.034-0.365-0.053-0.555-0.053-1.658 0.001-3.002 1.344-3.002 3.003s1.344 3.002 3.002 3.002 3.002-1.344 3.002-3.002c0-0.196-0.020-0.387-0.056-0.573 0.96 0.553 2.074 0.871 3.262 0.871 1.92 0 3.647-0.827 4.844-2.144 2.123 1.508 4.716 2.397 7.517 2.397 4.038 0 7.645-1.84 10.030-4.728 1.083 0.293 2.222 0.452 3.398 0.452 7.18 0 13.001-5.82 13.001-13 0-5.574-3.509-10.328-8.438-12.176z"></path>
</svg>
