<?xml version="1.0" encoding="utf-8"?><svg width="239" height="143" viewBox="0 0 239 143" xmlns="http://www.w3.org/2000/svg" xmlns:xlink="http://www.w3.org/1999/xlink"><svg width="60" height="60" viewBox="0 0 60 60" id="css3" x="118.175" xmlns="http://www.w3.org/2000/svg"><path fill="#fff" d="M3.75 0h52.5l-4.775 53.907L29.942 60 8.529 53.905 3.749 0zm42.725 11.033-32.95-.007.532 6.555 25.312.005-.637 6.79h-16.6l.6 6.432h15.455l-.915 8.808-7.275 2.01-7.39-2.025-.47-5.275h-6.525l.725 9.638 13.662 4.257 13.433-3.825 3.042-33.36z"/></svg><svg width="60" height="60" viewBox="0 0 60 60" id="gulp" y="82.127" xmlns="http://www.w3.org/2000/svg"><path fill="#fff" d="m37.89 48.58 1.59-2.71s-3.61 1.477-9.65 1.477c-6.045 0-9.6-1.42-9.6-1.42l1.777 2.958.63 9.323c0 1.008 3.285 1.795 7.34 1.795 4.058 0 7.345-.785 7.345-1.795l.573-9.588v-.04zm1.537-17.615c-1.923.115-2.883 2.258-3.847 4.512-.357.825-1.575 4.342-2.37 3.907-.795-.432 1.032-3.322 1.548-5.043-.593.435-2.763 2.123-3.322.537-.895.785-2.823 1.2-2.605-.822-.477.862-1.552 2.058-2.847 1.535-1.683-.638.987-6.027 1.65-5.768.665.303-.132 1.5-.34 1.985-.465 1.047-.995 2.395-.637 2.658.6.485 2.26-1.758 2.298-1.797.31-.413 1.197-3.072 1.908-2.768.712.335-1.777 3.852-.85 4.565.19.15.957-.075 1.422-.597.3-.3.195-1.05 1.197-3.445 1.01-2.397 1.91-5.39 2.598-5.165s.123 1.758-.128 2.358c-1.16 2.695-3.17 7.11-2.225 6.775.935-.337 1.422-.337 2.358-1.422s.862-2.88 1.497-2.843c.6.035.525.635.375 1.045.6-.675 2.88-2.17 3.408-.71.635 1.72-3.26 4.23-2.285 4.08.938-.112 2.47-1.085 3.145-1.983l1.797-16.25s-1.835 1.5-13.402 1.5-13.21-1.46-13.21-1.46l1.533 14.825c.825-2.32 2.77-7.035 5.805-6.85 1.385.075 3.258 2.772 1.645 2.847-.675.037-.75-1.347-1.535-1.535-.597-.115-1.385.338-1.908.863-1.01 1.01-3.26 5.015-2.96 7.002.375 2.545 3.517-.865 4.043-1.875.372-.708.635-2.845 1.42-2.62.825.225-.072 2.435-.675 4.342-.675 2.172-1.01 4.452-1.83 4.19-.825-.26.522-3.067.445-3.555-.783.747-2.208 2.55-4.077 1.647l.935 9.248s2.547 1.983 10.182 1.983 10.295-1.983 10.295-1.983l1.197-10.707c-.972.975-4.042 2.658-4.23.75-.147-1.535 3.333-3.745 2.435-3.785l.15-.172zm3.938-29.292-6.648 7-1.215 4.752c4.702.3 7.972.965 7.972 1.735 0 1.047-6.035 1.893-13.477 1.893s-13.475-.858-13.475-1.908c0-1.047 6.035-1.91 13.478-1.91 1.058 0 2.11 0 3.16.04l1.403-5.69L41.625.097c.17-.225.7-.038 1.185.375.485.372.747.86.597 1.085v.075l-.042.04zM33.78 16.16s-1.308 0-1.525-.2a.352.352 0 0 1-.09-.225c0-.145.098-.228.225-.275l.11.188c-.053.015-.072.037-.083.057 0 .102.785.173 1.387.165.597-.008 1.328-.057 1.332-.16 0-.03-.057-.057-.153-.082l.112-.18c.157.05.292.145.292.303 0 .275-.352.32-.575.353-.267.037-1.03.057-1.03.057h-.005z"/></svg><svg width="60" height="60" viewBox="0 0 60 60" id="html5" x="60" y="82.127" xmlns="http://www.w3.org/2000/svg"><path fill="#fff" d="M3.75 0h52.5l-4.775 53.907L29.942 60l-21.41-6.095L3.75 0zm17.577 24.375-.58-6.795 25.148.008.575-6.555-32.94-.007 1.745 20.025H38.09l-.815 8.565L30 41.626l-7.387-2.025-.47-5.275h-6.522l.825 10.428 13.555 3.625 13.447-3.608 1.86-20.392h-23.98z"/></svg><svg width="118.175" height="22.127" viewBox="0 0 118.175 22.127" id="insidesk-logo" xmlns="http://www.w3.org/2000/svg"><path d="M84.564 15.196H71.485v-2.001h11.629l-1.131.696a6.53 6.53 0 0 0 .001-.128q0-1.401-.61-2.511-.638-1.16-1.754-1.812-1.117-.653-2.596-.653a5.496 5.496 0 0 0-1.52.204 4.711 4.711 0 0 0-1.061.449q-1.131.652-1.769 1.827-.638 1.174-.638 2.682v.464a5.676 5.676 0 0 0 .234 1.655 4.955 4.955 0 0 0 .477 1.086q.71 1.203 1.986 1.87a5.83 5.83 0 0 0 1.933.602 7.402 7.402 0 0 0 .996.065q1.363 0 2.48-.464 1.116-.464 1.957-1.392l1.537 1.798q-1.044 1.218-2.595 1.856a8.484 8.484 0 0 1-2.305.576 10.546 10.546 0 0 1-1.161.062q-2.465 0-4.335-1.015-1.871-1.015-2.9-2.784-1.03-1.769-1.03-4.06a8.932 8.932 0 0 1 .282-2.287 7.444 7.444 0 0 1 .719-1.773q1-1.769 2.755-2.769a7.664 7.664 0 0 1 3.28-.976 9.274 9.274 0 0 1 .678-.025 8.591 8.591 0 0 1 2.195.27 7.116 7.116 0 0 1 1.749.716q1.711.986 2.683 2.77a7.886 7.886 0 0 1 .856 2.596 10.298 10.298 0 0 1 .115 1.565 5.007 5.007 0 0 1-.002.139l-.005.128a8.82 8.82 0 0 1-.007.139 5.918 5.918 0 0 1-.024.279 4.9 4.9 0 0 1-.02.156Zm-61.393-2.088v8.845h-2.784v-8.526a7.306 7.306 0 0 0-.103-1.273q-.123-.69-.39-1.234a3.367 3.367 0 0 0-.594-.857 3.552 3.552 0 0 0-1.756-.985q-.595-.146-1.304-.146-1.479 0-2.581.58-1.102.58-1.696 1.711-.595 1.131-.595 2.813v7.917H8.584V6.583h2.668v4.147l-.435-1.102a5.327 5.327 0 0 1 2.271-2.322 6.468 6.468 0 0 1 .049-.027 6.99 6.99 0 0 1 2.273-.74 9.163 9.163 0 0 1 1.381-.101q1.885 0 3.321.725 1.435.725 2.247 2.204a6.112 6.112 0 0 1 .583 1.559q.168.72.213 1.559a11.714 11.714 0 0 1 .016.623Zm3.219 7.221 1.16-2.204q.986.667 2.436 1.131 1.45.464 2.958.464a10.884 10.884 0 0 0 .956-.039q.947-.084 1.538-.348a2.294 2.294 0 0 0 .305-.164q.855-.551.855-1.537 0-.725-.522-1.131t-1.377-.609q-.856-.203-1.9-.362-1.044-.16-2.088-.406a8.643 8.643 0 0 1-1.411-.46 7.585 7.585 0 0 1-.503-.236q-.87-.45-1.392-1.247a2.92 2.92 0 0 1-.366-.833q-.102-.374-.137-.816a6.087 6.087 0 0 1-.019-.483 4.168 4.168 0 0 1 .262-1.493 3.839 3.839 0 0 1 .521-.943q.783-1.044 2.219-1.609 1.344-.53 3.159-.564a13.401 13.401 0 0 1 .248-.002 13.379 13.379 0 0 1 2.963.34 14.743 14.743 0 0 1 .097.023 9.96 9.96 0 0 1 1.146.337q.798.291 1.391.692L37.7 10.034a6.771 6.771 0 0 0-1.597-.793 6.129 6.129 0 0 0-.578-.164q-1.131-.261-2.262-.261a9.017 9.017 0 0 0-.954.047q-1.004.107-1.626.459a2.424 2.424 0 0 0-.146.089 2.359 2.359 0 0 0-.491.423 1.633 1.633 0 0 0-.408 1.099 1.824 1.824 0 0 0 .066.506 1.334 1.334 0 0 0 .471.698q.484.379 1.229.605a5.675 5.675 0 0 0 .163.047q.855.232 1.899.392 1.044.159 2.088.406 1.044.246 1.9.681.855.435 1.392 1.218a2.833 2.833 0 0 1 .389.865q.101.371.133.81a5.756 5.756 0 0 1 .014.413q0 1.392-.812 2.407a4.657 4.657 0 0 1-1.199 1.047 6.429 6.429 0 0 1-1.092.534 8.041 8.041 0 0 1-1.514.405q-.93.16-2.024.16a12.602 12.602 0 0 1-3.311-.428 11.759 11.759 0 0 1-.328-.094q-1.242-.376-2.101-.871a5.679 5.679 0 0 1-.611-.405Zm60.146 0 1.16-2.204q.986.667 2.436 1.131 1.45.464 2.958.464a10.884 10.884 0 0 0 .956-.039q.947-.084 1.538-.348a2.294 2.294 0 0 0 .305-.164q.855-.551.855-1.537 0-.725-.522-1.131t-1.377-.609q-.856-.203-1.9-.362-1.044-.16-2.088-.406a8.643 8.643 0 0 1-1.411-.46 7.585 7.585 0 0 1-.503-.236q-.87-.45-1.392-1.247a2.92 2.92 0 0 1-.366-.833q-.102-.374-.137-.816a6.087 6.087 0 0 1-.019-.483 4.168 4.168 0 0 1 .262-1.493 3.839 3.839 0 0 1 .521-.943q.783-1.044 2.219-1.609 1.344-.53 3.159-.564a13.401 13.401 0 0 1 .248-.002 13.379 13.379 0 0 1 2.963.34 14.743 14.743 0 0 1 .097.023 9.96 9.96 0 0 1 1.146.337q.798.291 1.391.692l-1.189 2.204a6.771 6.771 0 0 0-1.597-.793 6.129 6.129 0 0 0-.578-.164q-1.131-.261-2.262-.261a9.017 9.017 0 0 0-.954.047q-1.004.107-1.626.459a2.424 2.424 0 0 0-.146.089 2.359 2.359 0 0 0-.491.423 1.633 1.633 0 0 0-.408 1.099 1.824 1.824 0 0 0 .066.506 1.334 1.334 0 0 0 .471.698q.484.379 1.229.605a5.675 5.675 0 0 0 .163.047q.855.232 1.899.392 1.044.159 2.088.406 1.044.246 1.9.681.855.435 1.392 1.218a2.833 2.833 0 0 1 .389.865q.101.371.133.81a5.756 5.756 0 0 1 .014.413q0 1.392-.812 2.407a4.657 4.657 0 0 1-1.199 1.047 6.429 6.429 0 0 1-1.092.534 8.041 8.041 0 0 1-1.514.405q-.93.16-2.024.16a12.602 12.602 0 0 1-3.311-.428 11.759 11.759 0 0 1-.328-.094q-1.242-.376-2.101-.871a5.679 5.679 0 0 1-.611-.405Zm19.256 1.624h-2.784V.435h2.784v21.518Zm-40.339 0h-2.668v-4.147l.174-3.567-.29-3.567V.435h2.784v21.518Zm-10.51-.138a7.429 7.429 0 0 1-1.626-.674q-1.755-.986-2.77-2.755a7.614 7.614 0 0 1-.925-2.774 9.794 9.794 0 0 1-.09-1.344 9.187 9.187 0 0 1 .238-2.136 7.276 7.276 0 0 1 .777-1.967q1.015-1.755 2.77-2.741a7.723 7.723 0 0 1 3.1-.945 9.502 9.502 0 0 1 .887-.041 7.476 7.476 0 0 1 2.282.34 6.721 6.721 0 0 1 1.227.53 6.167 6.167 0 0 1 2.166 2.038 7.674 7.674 0 0 1 .343.572 7.317 7.317 0 0 1 .692 1.89q.187.836.234 1.802a13.556 13.556 0 0 1 .016.658q0 2.126-.606 3.674a6.72 6.72 0 0 1-.307.676 6.728 6.728 0 0 1-1.235 1.687 5.926 5.926 0 0 1-1.245.938 6.859 6.859 0 0 1-2.712.842 8.459 8.459 0 0 1-.855.042 8.651 8.651 0 0 1-2.361-.312Zm2.593-2.124a5.436 5.436 0 0 0 1.785-.287 4.996 4.996 0 0 0 .84-.38q1.174-.667 1.856-1.899a5.421 5.421 0 0 0 .615-1.88 6.952 6.952 0 0 0 .066-.977 6.738 6.738 0 0 0-.14-1.406 5.067 5.067 0 0 0-.541-1.45q-.682-1.204-1.856-1.871a5.156 5.156 0 0 0-2.355-.661 6.142 6.142 0 0 0-.27-.006 5.611 5.611 0 0 0-1.563.211 4.848 4.848 0 0 0-1.076.456q-1.16.667-1.856 1.871-.696 1.203-.696 2.856 0 1.624.696 2.857a5.053 5.053 0 0 0 1.273 1.505 4.831 4.831 0 0 0 .583.394 5.036 5.036 0 0 0 2.096.644 6.189 6.189 0 0 0 .543.023ZM3.277 21.953H.493V6.583h2.784v15.37Zm42.369 0h-2.784V6.583h2.784v15.37Zm63.597-7.424-3.973 3.712.058-3.567 8.845-8.091h3.364l-6.786 6.67-1.508 1.276Zm8.932 7.424h-3.422l-6.032-7.482 1.798-2.233 7.656 9.715ZM1.885 3.625q-.812 0-1.348-.522A1.708 1.708 0 0 1 0 1.862a2.096 2.096 0 0 1 0-.035 1.874 1.874 0 0 1 .13-.707A1.734 1.734 0 0 1 .537.522 1.824 1.824 0 0 1 1.735.005 2.411 2.411 0 0 1 1.885 0a2.135 2.135 0 0 1 .669.101 1.791 1.791 0 0 1 .68.407q.536.507.536 1.261a1.936 1.936 0 0 1-.138.741 1.809 1.809 0 0 1-.384.579 1.75 1.75 0 0 1-1.096.522 2.41 2.41 0 0 1-.267.014Zm42.369 0q-.812 0-1.348-.522a1.708 1.708 0 0 1-.537-1.241 2.096 2.096 0 0 1 0-.035 1.874 1.874 0 0 1 .13-.707 1.734 1.734 0 0 1 .407-.598 1.824 1.824 0 0 1 1.198-.517 2.411 2.411 0 0 1 .15-.005 2.135 2.135 0 0 1 .669.101 1.791 1.791 0 0 1 .68.407q.536.507.536 1.261a1.936 1.936 0 0 1-.138.741 1.809 1.809 0 0 1-.384.579 1.75 1.75 0 0 1-1.096.522 2.41 2.41 0 0 1-.267.014Z" vector-effect="non-scaling-stroke" stroke="none" stroke-linecap="round" font-size="12" stroke-width="0" fill="#fff" style="stroke:#fff;stroke-width:0;fill:#fff"/></svg><svg width="60" height="60" viewBox="0 0 60 60" id="javascript" x="178.175" xmlns="http://www.w3.org/2000/svg"><path fill="#fff" d="M0 0h60v60H0V0zm55.085 45.69c-.438-2.738-2.22-5.037-7.507-7.182-1.84-.863-3.885-1.463-4.492-2.85-.228-.825-.263-1.275-.115-1.763.375-1.615 2.287-2.1 3.787-1.65.975.3 1.875 1.05 2.44 2.25 2.585-1.69 2.585-1.69 4.388-2.813-.675-1.05-1.01-1.503-1.465-1.95-1.575-1.762-3.672-2.663-7.085-2.585l-1.763.222c-1.69.413-3.3 1.312-4.275 2.512-2.85 3.228-2.028 8.853 1.422 11.178 3.413 2.55 8.403 3.11 9.04 5.513.6 2.925-2.175 3.862-4.915 3.525-2.028-.45-3.15-1.465-4.387-3.34l-4.575 2.628c.525 1.2 1.125 1.722 2.025 2.772 4.35 4.39 15.225 4.165 17.178-2.51.072-.225.6-1.763.185-4.125l.115.168zM32.628 27.578h-5.62c0 4.845-.023 9.66-.023 14.513 0 3.08.157 5.907-.345 6.777-.825 1.722-2.95 1.503-3.915 1.2-.99-.49-1.492-1.165-2.075-2.137-.157-.263-.275-.49-.318-.49l-4.563 2.813c.762 1.575 1.875 2.93 3.31 3.792 2.137 1.275 5.01 1.688 8.017 1.012 1.957-.565 3.645-1.728 4.527-3.528 1.275-2.325 1.005-5.175.993-8.365.03-5.135 0-10.272 0-15.447l.01-.14z"/></svg><svg width="60" height="60" viewBox="0 0 60 60" id="npm" x="178.175" y="60" xmlns="http://www.w3.org/2000/svg"><path fill="#fff" d="M0 18.335v20h16.665v3.33H30v-3.33h30v-20H0zm16.665 16.66h-3.33v-10H9.997v10h-6.66V21.667h13.328v13.328zm10 0v3.34h-6.663V21.667h13.335v13.33l-6.672-.003zm30.002 0h-3.325v-10h-3.34v10h-3.338v-10h-3.325v10h-6.678V21.667h20.005v13.328z"/><path fill="#fff" d="M26.663 25H30v6.668h-3.337V25z"/></svg><svg width="88" height="60" viewBox="0 0 88 60" id="postcss" y="22.127" xmlns="http://www.w3.org/2000/svg"><path fill="#fff" d="M72.953 26.137c-.04-.778-.061-1.555-.14-2.333-.14-1.057-.28-2.134-.518-3.17-.179-.857-.477-1.675-.776-2.492-.378-.957-.757-1.934-1.236-2.851-.776-1.476-1.792-2.792-2.728-4.168-.617-.878-1.413-1.595-2.011-2.492-.338-.52-.836-.958-1.334-1.357-.796-.639-1.632-1.217-2.468-1.775a23.268 23.268 0 0 0-1.833-1.171l-.12-.064c-.537-.3-1.115-.539-1.672-.798-.637-.3-1.255-.658-1.971-.798-.179-.04-.338-.1-.518-.159-.459-.16-.897-.341-1.354-.48-.698-.219-1.374-.478-2.091-.658a19.386 19.386 0 0 0-2.129-.397c-.796-.12-1.612-.159-2.409-.24a19.25 19.25 0 0 0-1.533-.138c-.757-.041-1.533-.041-2.29-.061-.378-.02-.777-.061-1.155-.04-.577.02-1.155.08-1.733.159-.557.061-1.115.16-1.652.24-.658.08-1.314.12-1.972.2-.617.079-1.255.199-1.871.299-.219.04-.439.12-.658.159-.477.101-.975.14-1.453.3a35.585 35.585 0 0 0-2.809.968l.261-.09c-.777.318-1.534.657-2.27 1.056-.757.419-1.474.917-2.191 1.396-.677.459-1.354.937-2.011 1.455-.637.499-1.233 1.057-1.812 1.615-.319.318-.578.698-.878 1.056-.496.579-.994 1.137-1.472 1.735-.398.499-.757 1.017-1.135 1.536-.677.916-1.255 1.893-1.792 2.871-.124.211-.33.603-.528 1l-.089.197c-.299.598-.617 1.177-.896 1.793a7.212 7.212 0 0 0-.466 1.284l-.012.053c.001-.169-.279.818-.55 1.808l-.267 1.143c-.238.876-.298 1.793-.318 2.691-.02.798.061 1.575.139 2.373.02.2-.098.439.14.598-.08.219-.02.341.098.378-.138.219.061.36-.019.56-.02.039.061.119.098.179 0 .061-.019.14 0 .2.021.179.101.359.101.558 0 .139.121.299.159.439a.232.232 0 0 1-.038.199c-.121.139-.101.26.079.339.1.26.061.38.04.499.039.179-.02.239 0 .28.159.318.219.677.239 1.037 0 .079.039.159.079.259.02 0 0 .378 0 .378.098-.061.179-.079.278-.12.061.26.12.499.199.719.098.159.098.238.059.257.08.36.12.699.259 1.038 0-.378-.039-.758-.098-1.117.278.1.517.199.676.199.02-.061.039-.139.061-.179-.121-.12-.219-.299-.341-.418.041.159 0 .219 0 .28-.079-.041-.179-.081-.278-.121.079-.098.159-.199.278-.318 0-.18-.098-.341-.378-.32.12-.039.239-.098.378-.139.219-.12-.02-.339-.02-.618.019-.341-.18-.679-.24-1.037-.1-.56-.079-1.397-.139-1.955-.121-.098-.219.159-.24.18.061.478.12.956.159 1.435-.119-.398-.199-.837-.298-1.315-.02.139-.041.199-.041.28-.098.098-.02.218.04.358-.14-.061-.3-.04-.3-.04v.558c-.199-.199-.259-.359-.359-.499-.039-.159-.061-.318-.098-.477.038-.101 0-.16 0-.219a8.446 8.446 0 0 1-.054-.407l-.007-.072c.02-.02-.02-.319-.02-.319.159.02.259.04.358.04-.199-.26-.061-.419.02-.579.039-.079.179-.098.219-.179.159-.299.418-.537.418-.917 0-.179.061-.378.079-.558.041-.339.08-.678.101-1.017.039-.439 0-.878.098-1.296.16-.698.359-1.396.578-2.094.159-.499.339-.978.537-1.476.3-.778.578-1.556.956-2.293.537-1.078 1.155-2.114 1.753-3.17.378-.658.776-1.277 1.196-1.914.397-.618.794-1.256 1.254-1.835a16.376 16.376 0 0 1 2.094-2.238l.017-.015c.796-.717 1.553-1.455 2.408-2.113a24.023 24.023 0 0 1 3.413-2.209l.131-.064c1.017-.537 2.072-.957 3.127-1.356.677-.257 1.413-.378 2.111-.598a8.38 8.38 0 0 1 2.429-.398c.537-.02 1.056-.08 1.593-.14.478-.04.956-.08 1.474-.14-.061.079-.08.12-.1.159-.219.319-.458.639-.677.958-.179.26-.378.539-.558.798-.319.418-.658.837-.956 1.276-.459.658-.878 1.337-1.354 1.995-.478.638-.996 1.236-1.494 1.854-.657.858-1.274 1.735-1.931 2.593-.598.817-1.235 1.595-1.812 2.412-.518.719-.976 1.476-1.476 2.214-.735 1.097-1.472 2.173-2.209 3.27a131.086 131.086 0 0 1-2.136 3.052l.384-.56c-.04.061-.1.079-.159.12-.159.259-.159.399-.219.518-.159.299-.318.598-.498.878-.1.159-.239.299-.359.458-.02-.239.318-.359.159-.658-.098.16-.199.3-.298.459l-.24.478c.079.059.219.098.079.219-.061.098-.12.219-.179.318a.713.713 0 0 0 .218-.197l.001-.002c0 .219-.119.399-.219.579-.079.159-.278.278-.416.399.019.019.159.079.179.098.179-.061.238-.159.259-.098.061-.081.12-.141.139-.201.079-.199.199-.359.398-.439a.72.72 0 0 0 .199-.159c.598-.618 1.216-1.217 1.753-1.875.837-1.016 1.594-2.073 2.39-3.11.339-.439.737-.878 1.096-1.296.059.459.02.897 0 1.317-.061.737-.1 1.476-.159 2.232-.02.3 0 .598-.02.897 0 .08-.061.14-.061.219 0 .2.061.418.061.618-.061.738-.14 1.456-.199 2.194-.02.159.059.318.098.458-.098 1.077.121 2.213-.059 3.35.139-.219.179-.36.179-.499.02-.12 0-.239 0-.378v-.2c.02-.359.1-.738.061-1.097a3.69 3.69 0 0 1 .039-1.156c.039-.159-.02-.359.079-.558v.299c-.02 1.137.019 2.273-.14 3.41-.02.098.061.278-.159.259-.18.359.039.618-.159.817-.041.04.038.219.059.339-.08.24-.08.24.039.26.02.439.061.838.079 1.256.318-.757.159-1.536.299-2.313.02.319.04.639.02.978 0 .518-.019 1.017-.038 1.536 0 .098-.02.198-.041.298-.061.28-.079.558-.179.817-.08.2-.04.499-.04.738v.757c.079.341-.02.519.039.719-.061.199-.08.259-.061.318l.061.3c.398-.039.219.26.378.419-.121.159-.08.219-.08.299 0 .179-.02.339-.04.518 0 .459-.019.917-.019 1.356 0 .061.02.12.02.179 0 .039-.019.558-.019.558.04.061 0 .12-.061.179-.019 0-.079-2.533-.079-2.533h-.298c-.039 1.197.061 2.274-.159 3.39-.239.02-.318.061-.577.061-.617 0-1.235 0-1.852.02-.737 0-1.453.02-2.191.02-.358 0-.736.039-1.095.039-.478 0-.976-.061-1.453-.061-.738 0-1.454.061-2.191.08-.537.02-1.074.02-1.612.04-.42.02-.792.049-1.161.087l.085-.007c-.159.02-.299.08-.498.14-.061 0-.199-.02-.318 0-.2.04-.378.159-.578.2-.299.061-.378.14-.339.439v.199c-.02.04.439-.061.439-.061-.041 0-.061.121-.121.219.16-.059.26-.098.359-.138.299.139.558.061.797.12.776.199 1.572.28 2.368.359.518.04 1.016.061 1.534.08.737.039 1.474.079 2.209.079.618 0 1.216-.061 1.833-.061.855 0 1.712.041 2.568.061.179 0 .378-.02.577-.02h1.453c1.295-.039 2.59-.059 3.884-.098.737-.021 1.494-.061 2.23-.081l2.27-.061c.876-.019 1.752-.019 2.609-.038.657 0 1.294-.021 1.952-.041.735-.02 1.492-.08 2.229-.121.482-.028.894-.063 1.304-.108l-.109.01c.477-.041.976-.101 1.453-.121.717-.039 1.453-.059 2.172-.098.895-.061 1.791-.14 2.707-.16.838-.039 1.693-.02 2.53-.039.736-.02 1.473-.061 2.23-.08l1.256-.061s.835-.019 1.254-.059c.717-.04 1.433-.12 2.15-.139.457-.02.916 0 1.373-.02.736-.019 1.493-.059 2.23-.059.278 0 .577.04.936.061-.16.139-.26.219-.378.318.079.02.159.061.238.101a.537.537 0 0 1-.312.1h-.006c-.041.098-.081.139-.121.338h.359c-.14 0-.26.18-.399.3-.159-.04-.299 0-.378.219.139.079.12.139.1.219-.239.079-.418.159-.318.418-.081.04-.18.079-.28.139-.098.159-.278.2-.239.419.079.02.159.061.219.08-.101.04-.2.1-.3.14-.359.219-.199.319-.12.419-.061.04-.12.079-.179.1.039.179.098.219.119.219a8.905 8.905 0 0 0-.298.239c-.061.179-.14.259-.219.378-.079.121-.12.28-.219.399-.418.459-.717.997-1.254 1.354-.199.141-.378.32-.558.499-.359.339-.678.719-1.056 1.037-.452.377-.958.763-1.48 1.128l-.073.049c-.656.459-1.313.917-1.97 1.356-.358.239-.757.418-1.135.638s-.736.419-1.115.639c-.239.159-.459.378-.717.498-.657.28-1.354.518-2.031.778-.656.28-1.135.518-1.632.698-.458.159-.936.28-1.413.378-.159.041-.339 0-.518.02-.338.059-.676.139-1.015.179-.876.12-1.752.199-2.628.318-.518.061-1.015.16-1.534.219-.358.02-.736-.019-1.095-.019-.257 0-.537.061-.796.02-.418-.061-.836-.159-1.255-.239-.098-.02-.238-.061-.318-.02-.159.08-.299-.039-.459 0-.098.02-.199-.061-.299-.061-.08-.019-.179.021-.28 0-.219-.059-.418-.138-.656-.119s-.478-.098-.737-.159c-.359-.08-.698-.159-1.056-.24a1.752 1.752 0 0 1-.406-.183l.008.004c-.518 0-.857-.02-1.175-.139-.278-.1-.537-.24-.836-.2-.079.02-.139-.02-.219-.02-.061-.08-.119-.239-.179-.239-.399.02-.638-.319-.976-.419-.179-.061-.318-.259-.498-.318-.439-.182-.796-.56-1.294-.619-.159-.02-.318-.1-.498-.159.061.079.098.138.159.198-.577-.28-1.115-.598-1.653-.897-.079-.021-.139-.101-.199-.141l-.537-.359c-.298.061-.418-.061-.497-.1-.537-.378-1.155-.618-1.672-1.037-.219-.179-.479-.3-.638-.518-.28-.339-.617-.579-.996-.778-.299-.159-.577-.339-.855-.518-.141-.1-.28-.219-.28-.439 0-.139-.061-.28-.239-.199-.079-.121-.159-.26-.259-.3-.239-.098-.398-.278-.577-.437s-.318-.378-.537-.459c-.399-.159-.638-.498-.876-.777-.558-.658-1.056-1.377-1.574-2.073-.039-.061-.119-.101-.179-.16.079.219.179.399.278.598-.199-.079-.338-.219-.458-.358-.02.02 1.374 2.312 1.374 2.312.12.179.219.359.338.537a.612.612 0 0 1-.596-.315l-.002-.003c-.179-.319-.378-.519-.776-.479a3.218 3.218 0 0 1-.097-.419l-.003-.02c-.079 0-.139 0-.28-.02.28.439.519.817.778 1.256-.1-.059-.159-.098-.199-.119.358.378.617.857 1.074 1.097.1.458.617.677.737 1.116-.098-.02-.179-.04-.278-.061-.16-.199-.341-.398-.518-.617a.985.985 0 0 0 .179.359c.24.299.459.598.738.857.1.098.239.139.239.318.159.08.219.101.28.101.039.12-.02.299.219.259.159.299.318.299.537.2.257.257.398.278.577.119 0 .1.02.199.02.28.079-.041.059-.101.059-.201.098.08.159.12.199.159.2.28.378.539.658.758.378.319.717.658 1.074.957.696.577 1.474 1.056 2.25 1.495.956.537 1.872 1.116 2.847 1.634 1.175.618 2.429 1.037 3.723 1.336.715.142 1.191.253 1.664.373l-.249-.053c.418.12.836.299 1.255.399.637.14 1.294.26 1.931.378.139.021.28.041.439.061.179.04.398-.039.437.02.1.159.179.079.299.061.139-.041.299-.041.458-.041.558.02 1.096.139 1.653.1.119 0 .298-.1.398.1.179-.08.278-.08.358-.1.02.179 0 .179-.04.199s-.1.04-.179.1c.717.139 1.394.159 1.99 0 1.037.079 1.933-.04 2.789-.339.079.1.139.239.259.04.039-.061.139-.08.219-.1.179-.04.398-.12.557-.061.179.061.239-.098.378-.098.239 0 .458-.02.677-.061.119-.02.238-.079.378-.12a.966.966 0 0 0-.431-.1h-.008c.239-.12.458-.219.677-.318-.04.059-.08.138-.159.138h.278c-.061 0-.14.179-.239.299.717-.179 1.374-.338 2.011-.497-.219-.419.238-.28.398-.519a5.554 5.554 0 0 1-.598.159c.678-.338 1.375-.637 2.052-.936-.1.12-.219.179-.398.28.12.019.199.019.259.038.318.101.239-.198.338-.378.378 0 .537-.059.717-.119.199-.061.398-.121.598-.2.318-.14.617-.32.935-.479.059-.02.159 0 .238 0 .219-.14.298-.26.358-.24.28.04.478-.061.558-.318.139-.101.239-.18.339-.24.437-.24.855-.479 1.294-.719.159 0 .239 0 .278-.019.26-.121.499-.26.738-.399-.061-.02-.199-.098-.199-.098.199-.041.259-.061.378-.101.478-.558 1.135-.937 1.633-1.376.219-.021.219-.081.219-.121.079-.098.159-.219.257-.299.439-.399.917-.738 1.315-1.156a28.265 28.265 0 0 0 1.62-1.754l.034-.041c.477-.558.956-1.116 1.354-1.734.557-.857 1.034-1.735 1.532-2.633.359-.637.677-1.275 1.037-1.913.038-.061.119-.14.179-.14.537-.061 1.074-.098 1.593-.159.119-.02.257-.1.378-.159-.061-.101-.101-.219-.16-.32-.079-.12-.199-.219-.278-.339a1.838 1.838 0 0 1-.194-.329l-.005-.012c-.061-.098-.12-.179-.179-.278a6.907 6.907 0 0 1-.338-.678c-.02-.061-.061-.159-.04-.219.359-.777.498-1.615.836-2.393.339-.798.439-1.695.598-2.552.139-.817.219-1.634.318-2.452.061-.578.14-1.137.159-1.715.121-.917.08-1.774.061-2.633-.02-.757-.061-1.535-.098-2.293zm-40.959-8.015c.637-.878 1.294-1.755 1.932-2.652.199-.26.358-.537.557-.798.061-.079.141-.12.24-.2l-.02-.04c.08-.1.159-.179.2-.26.1-.159.159-.339.239-.518a.268.268 0 0 1 .079-.08c.28.139.28-.159.378-.26.179-.198.359-.418.518-.617.119-.159.238-.299.338-.478.02-.061-.04-.159-.061-.239h-.059c.059-.04.119-.1.179-.14.02 0 .02 0 .039-.019.12-.179.239-.359.359-.518.239-.319.498-.639.776-.918a3.476 3.476 0 0 1-.13.303l.01-.023c.02 0 .02.02.04.02.239-.319.498-.618.737-.938-.02-.019-.04-.038-.061-.038-.098.098-.179.198-.278.298-.02-.02-.04-.04-.061-.04.2-.259.399-.518.598-.817.04.061.079.139.159.299.08-.201.159-.341.219-.479-.061.061-.139.12-.199.179l-.061-.061.359-.537c.378-.539.757-1.097 1.135-1.636.141-.199.32-.359.439-.558.378-.757.976-1.354 1.434-2.054.1-.139.239-.259.359-.378.098-.12.179-.08.257.02.537.678 1.076 1.376 1.614 2.054.398.499.796.976 1.174 1.496.458.638.896 1.276 1.354 1.914a89.715 89.715 0 0 1 1.533 2.232c.757 1.117 1.474 2.234 2.231 3.351.558.817 1.115 1.615 1.653 2.432h-1.016c-.935-.02-1.892-.1-2.827-.061-1.275.061-2.569.2-3.844.3-1.612.139-3.246.159-4.858.159-.578 0-1.155.08-1.733.121-.696.038-1.374.079-2.071.098-.624.031-1.472.06-2.322.078l-.107.002c-.459.02-.936 0-1.434 0zm22.839 9.171v.182c-.02 0-.039.019-.079.019-.079-.28-.159-.578-.257-.857-.2-.578-.419-1.158-.777-1.675-.399-.558-.757-1.137-1.155-1.715-.098-.139-.239-.259-.358-.378-.418-.459-.837-.938-1.374-1.277a15.764 15.764 0 0 0-2.382-1.237l-.108-.04a5.623 5.623 0 0 1-.721-.373l.025.014h.477l3.405-.061c.737-.019 1.454-.019 2.191-.059.179 0 .278.061.378.219.179.299.358.598.557.897.02.039.059.098.059.159 0 .439 0 .897.02 1.336.02.459.061.897.079 1.356 0 .459-.04.937-.02 1.415.02.679.039 1.377.039 2.073zm-21.426-6.678c.936-.04 1.831-.1 2.748-.14.717-.038 1.453-.059 2.17-.098.299-.02.578-.04.876 0-.318.159-.637.318-.916.518-.359.239-.696.558-1.056.817s-.677.578-.976.917c-.378.459-.796.857-1.194 1.296-.28.319-.598.618-.837.957-.339.439-.638.917-.956 1.415.1-1.894.219-3.768.139-5.683zM46.41 39.797c-.637.159-1.294.339-1.952.418-.557.079-1.135.059-1.712.059-.518 0-1.016-.02-1.534-.061-.577-.059-1.155-.119-1.712-.378-.478-.219-.976-.418-1.453-.658-.479-.238-.956-.518-1.315-.956-.259-.319-.617-.578-.936-.857.061.24.199.439.418.579-.098.12-.238.061-.437-.26-.061.04-.12.061-.159.08a6.7 6.7 0 0 1 .179-.399c-.079-.159-.179-.338-.259-.498-.159-.26-.318-.537-.458-.798-.039-.061-.039-.12-.079-.179a4.327 4.327 0 0 1-.271-.344l-.009-.014c-.159-.24-.297-.499-.497-.738 0 .061.02.12.02.199-.02 0-.04.02-.04.02l-.418-1.016c-.02 0-.02 0-.039.02l.358 1.317c-.019 0-.038.019-.058.019a1.097 1.097 0 0 1-.156-.252l-.003-.007c-.041-.159-.16-.159-.26-.1-.061.04-.1.179-.079.239.139.341.298.679.458 1.018.04.12.079.219.139.339.02.04.079.08.079.14.079.159.139.318.238.459.179.239.378.478.558.717s.338.499.498.738c.02.04.079.04.098.061.101.299.439.518.678.398.061.459.558.618.757 1.057a8.027 8.027 0 0 1-.63-.284l.053.024c-.02.02-.02.04-.04.08.239.12.478.239.696.378.201.121.4.24.579.378.238.219.518.341.855.42a.242.242 0 0 0-.038-.081v.001c.556.26 1.135.539 1.572.758-2.071.039-4.281.079-6.572.12 0-.378-.02-.738-.02-1.117 0-.159.04-.299.02-.459-.061-.917-.061-1.834-.179-2.732-.118-.957-.118-1.895-.098-2.851.02-.519-.02-1.057-.04-1.575 0-.698 0-1.376.02-2.073 0-.101.039-.18.079-.28h.059c.02.04 0 .1.039.12.061.061.159.159.2.14.119-.08.298-.159.338-.28.101-.238.14-.498.14-.737 0-.18.079-.3.159-.419.04-.061.061-.121.1-.2-.079-.061-.159-.1-.259-.179.079-.219.061-.479.359-.598.038-.02.038-.121.059-.18.02-.159.039-.339.061-.499.038.061.059.081.098.121.02-.04.04-.061.04-.061 0-.079-.019-.239 0-.239.24-.038.14-.298.26-.418.02-.02-.02-.08-.02-.12s0-.1.02-.1c.278-.061.239-.359.418-.499.061-.038.079-.098.159-.198.159.28-.12.418-.139.618.338-.2.439-.678.239-.817.079-.061.159-.14.219-.219.219-.24.458-.459.657-.698.139-.179.219-.399.358-.578.079-.1.238-.179.358-.239.359-.2.696-.419.916-.758.04-.039.1-.079.159-.12.061-.04.18-.04.2-.1.02-.039-.039-.139-.079-.199.079-.04.159-.12.318-.2-.059.121-.079.201-.119.28l.1.1c.179-.139.458-.299.637-.418 0-.021-.101-.101-.101-.101-.12.061-.298.159-.477.239.038-.061.038-.1.059-.12.278-.179.557-.359.855-.499.698-.318 1.395-.637 2.091-.936.119-.061.278-.02.418-.02.061 0 .1 0 .159-.019.319-.1.638-.199.956-.28.131-.037.282-.059.438-.059h.001c.596.02 1.194.02 1.791.061.259.019.498.079.737.159.298.1.617.239.896.378.339.18.658.378.976.598.578.38 1.115.798 1.693 1.137.558.339.996.798 1.354 1.317.439.617.936 1.176 1.135 1.933l.298 1.317c.061.239.201.478.141.757-.1.499-.179 1.018-.259 1.516-.04.198-.08.398-.061.598.04.617-.199 1.156-.437 1.714-.08.18-.199.359-.299.558a.58.58 0 0 0 .155.079l.004.001.18-.36c.02 0 .02 0 .04.02-.098.28-.179.579-.278.858-.239.618-.478 1.256-.777 1.854-.159.339-.439.618-.637.938-.199.278-.359.577-.558.837-.179.219-.358.439-.598.598-.537.399-1.095.798-1.672 1.117-.358.219-.776.339-1.174.439zm1.773 1.674c.896-.378 1.633-.918 2.309-1.536.098-.1.199-.199.318-.28.837-.518 1.453-1.236 2.011-2.033.637-.917 1.056-1.954 1.574-2.931.039-.08.079-.159.119-.219-.039 2.273.219 4.506.518 6.759l-6.85.239zm20.19-.598c-.019.038-.059.079-.079.119-.02-.04-.02-.1-.04-.179-.12.318-.378.159-.558.159-1.074.02-2.17.02-3.246.02-1.035 0-2.09 0-3.125.02-.339 0-.698.08-1.037.1-.816.04-1.632.061-2.449.079-.061 0-.12-.098-.219-.179-.02.04-.061.1-.119.179-.02-.039-.061-.079-.1-.139-.019.061-.039.12-.059.159h-.061c-.039-.278-.119-.537-.119-.817 0-.598.061-1.196.079-1.793.02-.28 0-.54 0-.798.08.061.14.1.219.159.04-.079.079-.138.12-.198 0 0-.04-.02-.079-.061.039-.02.079-.059.079-.079.02-.061.061-.12.061-.159 0-.14-.041-.26-.061-.378.02 0 .039 0 .061-.02l.119.598h.061c-.081-.139.178-.259-.041-.418-.019-.02.02-.14.02-.2-.061-.121-.098-.24-.159-.4.02-.02.079-.04.139-.061-.079-.039-.138-.079-.198-.098.199-.18.199-.28.02-.479.04-.02.079-.02.079-.041 0-.179 0-.359-.04-.537-.04-.201.061-.439-.239-.56a.6.6 0 0 0 .081.162l-.001-.002s-.061.02-.12.061c-.259-.24-.098-.56-.159-.918.139.039.239.079.338.12-.039-.14-.139-.3-.199-.479h-.079v-1.316c0 .02.139.02.219.041 0-.02.02-.04.02-.061-.061-.079-.14-.159-.219-.259l.04-.04c-.159-.2-.08-.479-.08-.539v-1.396c.2.2-.098.459.2.579v-.2h-.02c-.02-.299-.02-.598-.039-.897h-.04c-.02.04-.02.061-.04.1h-.04l.12-4.765c.199.26.418.499.557.757.459.838 1.056 1.556 1.614 2.314.478.658.916 1.376 1.354 2.054.537.817 1.055 1.634 1.593 2.453.398.617.817 1.236 1.233 1.834.378.537.778 1.057 1.176 1.575.338.459.696.917 1.035 1.376.399.558.797 1.117 1.196 1.655.199.28.418.558.636.838.121.159.3.28.419.378-.02 0-.04 0-.079-.02.059.08.098.14.138.179.219.12.239.24.12.419zm1.016-4.986v-.139c0 .04.02.1 0 .14zm.678-8.793c-.02 0-.139-.12-.159-.14-.02.061 0 .121-.04.2-.02-.061-.159-.041-.159-.101-.02.28.119.558.098.838.061-.04.299-.061.359-.12a.15.15 0 0 0 .079.04h.001c-.399.298-.299.598-.12.936.039.079.159.239.039.399-.04.04.02.159.039.26h.061v.039l-.18.059c-.04-.061-.278-.179-.278-.28v1.018c.199.061.199.339.278.479a.61.61 0 0 0 .078-.155l.001-.004.02.019c-.02.121-.04.241-.08.36-.039.179-.079.339-.098.518 0 .02.038.061.038.08-.218.499-.098 1.057-.178 1.575-.061.378 0 .778-.04 1.177a9.71 9.71 0 0 1-.199 1.037c-.02.061-.061.079-.16.12.04-.238.02-.398-.02-.617-.02 0-.278-.139-.299-.139 0 .28.159.658.219.976-.061-.019-.299-.159-.318-.159-.041.239-.041.558-.061.817-.02.2-.199.378-.219.598 0 .121.139.201.12.4h.159c0-.399.18-.757.18-1.177h.059c.021.04.081.08.061.1-.039.219-.119.459-.098.678 0 .121.098.24.059.38-.04.12-.061.239-.079.418-.02-.1-.04-.139-.04-.199-.02 0-.199-.02-.219-.02-.02.12.14.24.12.339-.02.02-.039.02-.079.04l-.657-.957c-.518-.757-1.037-1.515-1.553-2.293a4.7 4.7 0 0 1-.346-.571l-.012-.027a28.023 28.023 0 0 0-2.098-3.114l.048.064c-.577-.738-1.037-1.536-1.574-2.312-.497-.738-.995-1.456-1.493-2.194-.179-.238-.398-.458-.558-.717-.518-.817-.976-1.655-1.493-2.472-.439-.678-.916-1.336-1.374-1.994-.16-.219-.319-.459-.479-.698a.282.282 0 0 1-.039-.14c-.04-.439-.08-.878-.1-1.296 0-.399.04-.798.04-1.216v-.359c0-.098.02-.179.02-.28.02-.019.04-.059.061-.079-.578 0-1.176-.02-1.753 0-.378.02-.577-.139-.836-.418-.757-.858-1.314-1.835-1.971-2.752-.617-.878-1.255-1.734-1.892-2.592-.518-.698-1.037-1.376-1.553-2.073-.577-.798-1.135-1.595-1.733-2.393a284.242 284.242 0 0 0-2.19-2.872c-.339-.439-.717-.857-1.096-1.317.26.041.498.08.737.101l.956.061c.717.059 1.434.098 2.15.198.598.08 1.194.2 1.811.3 1.314.219 2.608.578 3.863.997.736.24 1.453.56 2.17.858 1.612.658 3.146 1.456 4.659 2.293.477.26.757.679 1.115 1.057.518.54 1.035 1.078 1.533 1.636.577.658 1.115 1.336 1.672 2.014.498.598 1.015 1.196 1.513 1.793.159.18.28.4.418.599.318.478.676.937.955 1.455.199.378.318.817.458 1.236.199.618.399 1.217.598 1.834.139.459.259.938.358 1.415.08.32.061.658.159.978.121.418 0 .878.121 1.295.019.04.038.1.059.14.079.079.139.159.02.28-.02.019-.02.098 0 .159.04-.04.061-.08.1-.14 0 .04.02.061.02.08 0 .079-.02.159 0 .239 0 .04.04.1.061.139.039-.039.079-.061.159-.12.179.678.199 1.356.199 2.054 0 .658.12 1.317-.159 1.955.059-.219-.08-.419-.02-.618zm-46.913.439c.219-.28.439-.558.677-.838.02.02.179.061.199.079-.219.28-.518.658-.737.957-.04-.04-.1-.179-.139-.199zm-5.656 9.77c-.159-.339-.318-.698-.477-1.037a.683.683 0 0 1 .173-.079l.005-.001c.219.319.318.698.477 1.037 0 0-.159.08-.179.08zm5.147-8.558c-.129.065-.225.136-.209.323 0 .059-.098.138-.199.198-.179.219-.439.558-.617.758.061.02.16.02.16.039 0 .061 0 .14-.04.179-.2.159-.399.3-.578.459-.039.02-.061.098-.079.139-.079.159-.098.378-.378.339.02-.2-.039-.299-.278-.239.159-.26.298-.459.437-.678.219-.179.419-.339.618-.518l.359-.24c.08-.061.14-.139.219-.199 0 .02.061-.02.1-.04.061-.159.12-.339.179-.499-.02-.019-.02-.038-.041-.059-.079.12-.139.24-.219.359l-.02-.021c-.179.159-.418.419-.557.558a.575.575 0 0 1 .041-.183l-.001.004c.12-.12.259-.219.378-.339 0 0 .061-.02.1-.061l-.02-.019c.041-.1.061-.2.081-.24.098-.079.199-.098.219-.159.079-.219.138-.3.298-.28 0-.039 0-.059-.039-.098.12-.08.239-.18.359-.26.02.02.04.02.061.039-.08.12-.08.219-.16.359 0 0-.061.02-.098.02a.858.858 0 0 0-.101.179c0 .02.02.079.1.139l-.011.005.07.036c.079-.139.159-.26.239-.399l.079.079-.18.3-.537.778c-.04.061-.08.159-.14.18-.061.02-.139-.02-.219-.061.268-.076.536-.446.628-.882zm-5.923 6.166c.079.199.159.418.239.618a.593.593 0 0 0-.161.081l.002-.001c-.08-.2-.18-.418-.26-.618a.49.49 0 0 1 .177-.079l.003-.001zm44.325 19.062c.098-.04.218-.061.378-.1-.18.139-.319.239-.439.359-.02-.02-.04-.04-.061-.04.04-.079.08-.138.121-.218z"/></svg><svg width="48" height="60" viewBox="0 0 48 60" id="thought-cloud" x="120" y="82.127" xmlns="http://www.w3.org/2000/svg"><path fill="#3b5999" d="M39.562 12.267C37.713 7.339 32.961 3.83 27.387 3.83c-4.642 0-8.712 2.434-11.013 6.094a13.148 13.148 0 0 0-1.645-.108c-7.18 0-13 5.82-13 13.001 0 2.914.959 5.604 2.578 7.772a6.52 6.52 0 0 0-1.641 4.332c0 1.203.326 2.329.892 3.298a3.003 3.003 0 1 0 2.391 2.377c.96.553 2.074.871 3.262.871 1.92 0 3.647-.827 4.844-2.144a12.936 12.936 0 0 0 7.517 2.397c4.038 0 7.645-1.84 10.03-4.728 1.083.293 2.222.452 3.398.452 7.18 0 13.001-5.82 13.001-13 0-5.574-3.509-10.328-8.438-12.176z"/></svg></svg>