<!-- Generated by IcoMoon.io -->
<svg version="1.1" xmlns="http://www.w3.org/2000/svg" width="60" height="60" viewBox="0 0 60 60">
<title>javascript</title>
<path fill="#fff" d="M0 0h60v60h-60v-60zM55.085 45.69c-0.438-2.738-2.22-5.037-7.507-7.182-1.84-0.863-3.885-1.463-4.492-2.85-0.228-0.825-0.263-1.275-0.115-1.763 0.375-1.615 2.287-2.1 3.787-1.65 0.975 0.3 1.875 1.050 2.44 2.25 2.585-1.69 2.585-1.69 4.388-2.813-0.675-1.050-1.010-1.503-1.465-1.95-1.575-1.762-3.672-2.663-7.085-2.585l-1.763 0.222c-1.69 0.413-3.3 1.312-4.275 2.512-2.85 3.228-2.028 8.853 1.422 11.178 3.413 2.55 8.403 3.11 9.040 5.513 0.6 2.925-2.175 3.862-4.915 3.525-2.028-0.45-3.15-1.465-4.387-3.34l-4.575 2.628c0.525 1.2 1.125 1.722 2.025 2.772 4.35 4.39 15.225 4.165 17.178-2.51 0.072-0.225 0.6-1.763 0.185-4.125l0.115 0.168zM32.628 27.578h-5.62c0 4.845-0.023 9.66-0.023 14.513 0 3.080 0.157 5.907-0.345 6.777-0.825 1.722-2.95 1.503-3.915 1.2-0.99-0.49-1.492-1.165-2.075-2.137-0.157-0.263-0.275-0.49-0.318-0.49l-4.563 2.813c0.762 1.575 1.875 2.93 3.31 3.792 2.137 1.275 5.010 1.688 8.017 1.012 1.957-0.565 3.645-1.728 4.527-3.528 1.275-2.325 1.005-5.175 0.993-8.365 0.030-5.135 0-10.272 0-15.447l0.010-0.14z"></path>
</svg>
